<svg width="50" height="50" viewBox="0 0 50 50" fill="none" xmlns="http://www.w3.org/2000/svg">
<path d="M18.1354 42.7087C17.8536 37.1914 20.5097 33.7026 25.001 31.9805C27.9643 30.8441 31.9068 29.0651 31.8864 25.0114C31.8735 22.4426 30.2504 20.7874 28.3137 19.6208M18.1354 7.29199C17.9228 11.2862 19.2549 14.1742 21.6823 16.1464" stroke="#22202A" stroke-width="2" stroke-miterlimit="10" stroke-linecap="round"/>
<path d="M31.8644 42.7087C32.0686 38.7101 30.7296 35.7772 28.2675 33.8097M31.8644 7.29199C32.1598 12.8463 29.4686 16.2614 24.9988 18.0495C22.0646 19.2233 18.1335 21.0078 18.1134 25.0114C18.1002 27.6139 19.7207 29.2791 21.6667 30.4382" stroke="#22202A" stroke-width="2" stroke-miterlimit="10" stroke-linecap="round"/>
<path d="M20.833 40.625H29.1663" stroke="#22202A" stroke-width="2" stroke-linecap="round"/>
<path d="M22.917 12.5H27.0837" stroke="#22202A" stroke-width="2" stroke-linecap="round"/>
<path d="M20.833 9.375H29.1663" stroke="#22202A" stroke-width="2" stroke-linecap="round"/>
<path d="M21.0645 25.1739H28.9349M23.032 22.2227H26.9672M23.032 28.1254H26.9672" stroke="#22202A" stroke-width="2" stroke-linecap="round"/>
<path d="M22.917 37.5H27.0837" stroke="#22202A" stroke-width="2" stroke-linecap="round"/>
</svg>
