<svg width="24" height="24" viewBox="0 0 24 24" fill="none" xmlns="http://www.w3.org/2000/svg">
<path d="M20.9642 3.1807H18.9401V1.15664C18.9401 0.520452 18.4196 0 17.7837 0H3.03647C2.40034 0 1.87988 0.520452 1.87988 1.15664V19.6626C1.87988 20.2988 2.40034 20.8193 3.03652 20.8193H5.06063V22.8434C5.06063 23.4795 5.58084 24 6.21727 24H16.0483C16.6842 24 17.584 23.6432 18.0469 23.2074L21.278 20.1661C21.7415 19.7304 22.1203 18.853 22.1203 18.2169L22.1208 4.33743C22.1208 3.7012 21.6003 3.1807 20.9642 3.1807ZM5.06053 4.33738V19.9518H3.03647C2.87977 19.9518 2.74735 19.8194 2.74735 19.6627V1.15664C2.74735 0.999936 2.87977 0.867514 3.03647 0.867514H17.7837C17.9402 0.867514 18.0729 0.999936 18.0729 1.15664V3.18074H6.21717C5.58075 3.18074 5.06053 3.7012 5.06053 4.33738ZM20.6834 19.5345L17.4524 22.5756C17.3862 22.6378 17.3 22.6988 17.2048 22.7569V20.0963C17.2048 19.8977 17.2849 19.719 17.4171 19.586C17.5504 19.4538 17.7291 19.3735 17.9277 19.3735H20.8208C20.7759 19.4344 20.73 19.4905 20.6834 19.5345ZM21.2527 18.2168C21.2527 18.3027 21.2371 18.4022 21.2134 18.5059H17.9277C17.0502 18.5077 16.3391 19.2187 16.3373 20.0963V23.0974C16.2341 23.1183 16.1346 23.1324 16.0482 23.1324H6.21717V23.1324C6.06014 23.1324 5.92805 23 5.92805 22.8433V4.33734C5.92805 4.18063 6.06019 4.04821 6.21717 4.04821H20.9641C21.1208 4.04821 21.2532 4.18063 21.2532 4.33734L21.2527 18.2168Z" fill="#5987BE"/>
<path d="M17.7841 7.22852H9.39858C9.34161 7.22848 9.2852 7.23968 9.23256 7.26147C9.17992 7.28326 9.1321 7.3152 9.09181 7.35549C9.05153 7.39577 9.01958 7.44359 8.9978 7.49623C8.97601 7.54887 8.96481 7.60528 8.96484 7.66225C8.96482 7.71922 8.97602 7.77563 8.99781 7.82826C9.0196 7.8809 9.05155 7.92872 9.09183 7.969C9.13211 8.00928 9.17993 8.04123 9.23257 8.06302C9.2852 8.08481 9.34161 8.09601 9.39858 8.09598H17.7841C18.0235 8.09598 18.2178 7.90197 18.2178 7.66225C18.2178 7.42253 18.0235 7.22852 17.7841 7.22852ZM17.7841 13.0117H9.39858C9.34161 13.0116 9.2852 13.0228 9.23256 13.0446C9.17992 13.0664 9.1321 13.0984 9.09181 13.1386C9.05153 13.1789 9.01958 13.2267 8.9978 13.2794C8.97601 13.332 8.96481 13.3884 8.96484 13.4454C8.96482 13.5024 8.97602 13.5588 8.99781 13.6114C9.0196 13.6641 9.05155 13.7119 9.09183 13.7522C9.13211 13.7924 9.17993 13.8244 9.23257 13.8462C9.2852 13.868 9.34161 13.8792 9.39858 13.8791H17.7841C17.8411 13.8791 17.8975 13.8679 17.9501 13.8461C18.0027 13.8243 18.0505 13.7924 18.0908 13.7521C18.1311 13.7118 18.163 13.664 18.1848 13.6114C18.2066 13.5588 18.2178 13.5024 18.2178 13.4454C18.2178 13.3884 18.2066 13.332 18.1848 13.2794C18.163 13.2268 18.1311 13.179 18.0908 13.1387C18.0505 13.0984 18.0027 13.0665 17.9501 13.0447C17.8975 13.0229 17.8411 13.0117 17.7841 13.0117ZM14.0251 15.9032H9.39862C9.15891 15.9032 8.96489 16.0973 8.96489 16.337C8.96489 16.5767 9.15891 16.7707 9.39862 16.7707H14.0251C14.2645 16.7707 14.4585 16.5767 14.4585 16.337C14.4585 16.0973 14.2645 15.9032 14.0251 15.9032ZM17.7841 10.1201H9.39858C9.15886 10.1201 8.96484 10.3141 8.96484 10.5538C8.96484 10.7935 9.15891 10.9876 9.39858 10.9876H17.7841C18.0235 10.9876 18.2178 10.7935 18.2178 10.5538C18.2178 10.3141 18.0235 10.1201 17.7841 10.1201Z" fill="#5987BE"/>
</svg>
