<svg width="188" height="70" viewBox="0 0 188 70" fill="none" xmlns="http://www.w3.org/2000/svg">
<g clip-path="url(#clip0_1_673)">
<path fill-rule="evenodd" clip-rule="evenodd" d="M136.958 0.387878C135.623 0.930664 134.406 2.08686 133.744 3.44094C133.222 4.50942 133.166 4.83041 133.166 6.78493C133.166 8.54921 133.246 9.11939 133.598 9.88414C134.229 11.2541 135.192 12.2517 136.511 12.9026C137.531 13.4055 137.906 13.4759 139.52 13.4678C141.706 13.4569 142.858 13.002 144.046 11.6807C145.357 10.2229 145.668 9.26289 145.668 6.68201C145.668 4.61586 145.618 4.31339 145.092 3.23832C144.013 1.03012 142.169 -0.022093 139.417 0.000351475C138.431 0.00838204 137.55 0.147167 136.958 0.387878ZM78.0249 0.455211C77.97 0.598113 77.9498 3.53998 77.9797 6.99291L78.0341 13.2712L82.7995 13.3264L87.5645 13.3817V14.9222V16.4628H89.1017H90.6388V13.3741V10.2854H89.9214H89.204V5.2406V0.195762H87.4622H85.72V5.2406V10.2854H83.5676H81.4158V5.2406V0.195762H79.7699C78.6349 0.195762 78.0931 0.276274 78.0249 0.455211ZM91.9931 0.521514C91.8037 1.01674 91.8503 12.8211 92.0429 13.1256C92.1636 13.3173 92.6944 13.375 93.9358 13.3315L95.66 13.2712L97.8616 9.04999L100.063 4.8288L99.9319 9.10147L99.8015 13.3741H101.147C103.333 13.3741 103.141 14.0226 103.141 6.65995V0.195762H101.337H99.5329L97.4276 4.31401C96.2696 6.57903 95.2799 8.43224 95.2283 8.43224C95.1766 8.43224 95.1978 6.57903 95.2753 4.31401L95.4163 0.195762H93.7666C92.4516 0.195762 92.0922 0.26186 91.9931 0.521514ZM110.389 0.801348C110.283 1.33219 110.142 1.43412 109.256 1.62521C106.257 2.27136 104.509 4.51498 104.871 7.25486C105.192 9.68339 106.887 11.3447 109.546 11.8364C110.216 11.9603 110.314 12.052 110.314 12.5513C110.314 13.2654 110.587 13.3741 112.38 13.3741H113.798V12.6862C113.798 12.016 113.829 11.9916 114.977 11.7402C117.114 11.2722 118.664 10.0297 119.141 8.40198C119.454 7.33618 119.401 5.49514 119.031 4.60701C118.395 3.0773 116.992 2.05062 114.977 1.64147C113.865 1.41558 113.798 1.36823 113.798 0.79888V0.195762H112.154H110.509L110.389 0.801348ZM121.177 6.78493V13.3741H122.816H124.456V11.1091V8.84409L126.659 8.83953C128.361 8.83603 129.049 8.74853 129.682 8.4549C131.285 7.71174 131.865 6.65134 131.858 4.47791C131.853 2.91772 131.547 2.15646 130.602 1.35793C129.52 0.443063 128.226 0.195762 124.521 0.195762H121.177V6.78493ZM147.616 6.81132V13.4266L151.663 13.3303C154.865 13.2539 155.882 13.1602 156.528 12.8822C158.131 12.1928 158.888 11.0623 158.888 9.35886C158.888 8.04452 158.427 7.0683 157.566 6.55762L156.838 6.12643L157.442 5.56058C158.158 4.88807 158.361 4.20735 158.219 2.94757C158.147 2.30245 157.938 1.83173 157.536 1.41064C156.599 0.427619 155.402 0.195762 151.267 0.195762H147.616V6.81132ZM164.034 0.659064C163.939 0.913984 162.971 3.53154 161.882 6.47611C160.792 9.42062 159.811 12.0427 159.702 12.3028C159.272 13.3241 159.374 13.3954 161.179 13.3309L162.856 13.2712L163.28 12.0812L163.704 10.8913L165.942 10.9487L168.179 11.0062L168.504 11.9371C169.032 13.4528 168.796 13.3741 172.819 13.3741H176.477L176.957 12.7984C177.221 12.4817 178.034 11.3698 178.765 10.3275C179.895 8.71537 180.178 8.43224 180.66 8.43224H181.228V10.7761V13.1198L182.786 13.2667C183.668 13.3496 184.426 13.3319 184.532 13.2259C184.638 13.1192 184.695 10.3015 184.664 6.66861L184.61 0.298718L180.96 0.242504C177.109 0.182996 176.186 0.312926 175.078 1.07047C173.944 1.84594 173.57 2.52875 173.477 3.99711C173.349 6.02 174.1 7.33185 175.839 8.12336C176.272 8.32065 176.215 8.42381 174.484 10.5657C173.49 11.7956 172.611 12.8149 172.532 12.8307C172.412 12.8546 171.425 10.2972 167.993 1.07089L167.667 0.195762H165.937C164.33 0.195762 164.194 0.228914 164.034 0.659064ZM14.1913 13.4763V26.3466H6.09566H-2V34.1713V41.9959H5.3244H12.6488L5.62898 49.0442L-1.39067 56.0926L4.09327 61.6051L9.57739 67.1176L16.8032 59.8601L24.029 52.6027V60.4777V68.3527H31.9197H39.8104V60.1162V51.8797H52.5182H65.2261L65.1741 26.2951L65.122 0.710541L39.6567 0.658239L14.1913 0.605937V13.4763ZM140.647 3.03694C141.711 3.55646 142.288 4.84091 142.283 6.67418C142.275 9.14946 141.395 10.4871 139.676 10.6357C137.845 10.794 136.785 9.63292 136.596 7.26144C136.332 3.95551 138.308 1.89433 140.647 3.03694ZM154.703 3.37525C154.863 3.59517 154.994 3.92483 154.994 4.10809C154.994 4.29135 154.863 4.62101 154.703 4.84091C154.463 5.17102 154.106 5.25318 152.654 5.31328L150.895 5.38576V4.10809V2.83041L152.654 2.90289C154.106 2.96302 154.463 3.04518 154.703 3.37525ZM181.228 4.41696V5.96128L179.64 5.9582C178.766 5.95659 177.822 5.83878 177.542 5.69648C176.824 5.33142 176.546 4.43694 176.934 3.74219C177.305 3.07689 177.826 2.91957 179.742 2.89321L181.228 2.87262V4.41696ZM127.8 3.31533C128.421 3.64356 128.548 3.88942 128.552 4.76557C128.556 5.87194 128.029 6.16723 126.05 6.16723H124.456V4.62286V3.07853H125.904C126.701 3.07853 127.554 3.18499 127.8 3.31533ZM167.159 7.86597L167.299 8.43224H165.963C165.065 8.43224 164.627 8.35174 164.627 8.18659C164.627 8.05152 164.92 7.06107 165.279 5.9856L165.93 4.03005L166.475 5.6648C166.775 6.56402 167.083 7.55443 167.159 7.86597ZM110.314 6.68201C110.314 9.35863 110.153 9.58143 109.064 8.41041C108.057 7.32734 108.23 5.10655 109.364 4.55472C110.28 4.10912 110.314 4.1849 110.314 6.68201ZM115.249 4.91589C116.21 5.88143 116.06 7.78382 114.953 8.68511C114.713 8.88074 114.354 9.04299 114.157 9.04547C113.836 9.04957 113.798 8.80167 113.798 6.68201C113.798 4.42211 113.818 4.31401 114.224 4.31401C114.458 4.31401 114.919 4.58478 115.249 4.91589ZM60.5105 26.3466V47.3495H50.1603H39.8104L39.7862 37.1055C39.7727 31.4712 39.7768 26.7457 39.795 26.604C39.8213 26.401 37.5967 26.3466 29.2644 26.3466H18.7003V15.8451V5.34358H39.6055H60.5105V26.3466ZM154.789 7.8738C155.191 8.07703 155.315 8.31651 155.363 8.98409C155.454 10.2245 154.981 10.4914 152.694 10.4914H150.895V9.04999V7.60859L152.586 7.61167C153.53 7.61333 154.503 7.72906 154.789 7.8738ZM78.1368 28.6117V35.2008H79.7763H81.4158V33.1821V31.1633L82.1466 30.4537C82.7475 29.8698 82.9083 29.799 83.0543 30.053C83.1516 30.2229 83.9142 31.4275 84.7486 32.7299L86.2665 35.0979L89.9735 35.1473L93.68 35.1969L94.0721 34.0148L94.4647 32.8329H96.6747H98.885L99.2873 33.8618C99.5085 34.4277 99.7177 34.9189 99.7518 34.9535C99.9287 35.1308 103.141 35.0725 103.141 34.892C103.14 34.7787 102.089 31.8599 100.805 28.4057L98.4699 22.1254L96.7452 22.0665L95.0204 22.0076L92.6806 28.2787C91.3936 31.7277 90.2817 34.5129 90.2094 34.468C89.9808 34.3261 85.3099 27.42 85.3099 27.224C85.3099 27.121 86.3245 25.9634 87.5645 24.6516C88.8045 23.3395 89.8191 22.2113 89.8191 22.1444C89.8191 22.0772 88.9044 22.0225 87.7861 22.0225H85.7536L83.5847 24.5029L81.4158 26.9833V24.5029V22.0225H79.7763H78.1368V28.6117ZM109.29 22.6363C109.29 23.141 109.189 23.2705 108.726 23.3644C106.194 23.8777 104.681 24.8552 104.079 26.3655C103.656 27.4309 103.625 29.5455 104.02 30.4957C104.706 32.1441 106.373 33.3435 108.439 33.6757C109.241 33.8043 109.29 33.8515 109.29 34.5065V35.2008H110.929H112.568V34.5065C112.568 33.8498 112.615 33.8046 113.431 33.6736C115.384 33.3598 116.948 32.3096 117.75 30.7737C118.231 29.8541 118.33 27.5168 117.931 26.5118C117.327 24.9882 115.56 23.7838 113.337 23.3792C112.654 23.2548 112.568 23.1718 112.568 22.6309V22.0225H110.929H109.29V22.6363ZM119.947 28.6081V35.2008H125.173H130.399V33.6312V32.0617L126.933 32.1704L123.466 32.2792L123.397 31.0678L123.329 29.8562L126.505 29.8002L129.682 29.7442V28.4057C129.682 27.1029 129.669 27.0685 129.17 27.114C128.888 27.14 127.49 27.1069 126.063 27.0407L123.468 26.9205L123.398 25.9173L123.329 24.9143L126.813 24.8583L130.297 24.8023V23.4639V22.1254L125.122 22.0704L119.947 22.0155V28.6081ZM134.243 24.6441C134.136 27.3352 133.712 29.6676 133.044 31.2313C132.703 32.0312 132.602 32.1122 131.944 32.1122H131.22V35.2008V38.2895H132.859H134.499V36.7452V35.2008H137.983C139.899 35.2008 141.536 35.1776 141.621 35.1493C141.705 35.1212 141.802 35.8161 141.834 36.6937L141.894 38.2895H143.525H145.156V35.2008V32.1122H144.443H143.729L143.674 27.1188L143.619 22.1254L138.984 22.0702L134.348 22.0148L134.243 24.6441ZM146.386 28.4726C146.386 35.9273 146.172 35.2562 148.529 35.1796L149.87 35.136V33.0062V30.8767L151.151 30.8629C153.612 30.8361 154.601 30.631 155.676 29.9239C157.087 28.9961 157.659 26.6264 156.952 24.6342C156.585 23.602 156.179 23.1764 155.026 22.6134C154.164 22.1932 153.701 22.14 150.229 22.0632L146.386 21.978V28.4726ZM162.192 22.4858C162.097 22.7405 161.039 25.5932 159.839 28.825C158.64 32.0568 157.659 34.817 157.659 34.9591C157.659 35.1502 158.098 35.2019 159.349 35.1576L161.04 35.0979L161.448 33.9075L161.856 32.7173L164.095 32.775L166.334 32.8329L166.665 33.8291C166.848 34.3772 167.165 34.92 167.371 35.0357C167.738 35.242 170.243 35.1871 170.461 34.9678C170.546 34.8817 167.348 25.949 166.029 22.5887C165.811 22.0336 165.773 22.0225 164.085 22.0225C162.486 22.0225 162.35 22.0556 162.192 22.4858ZM140.237 28.5087V32.1122H138.268C136.47 32.1122 136.313 32.0809 136.456 31.7518C136.893 30.7447 137.402 28.3087 137.511 26.707L137.634 24.9052H138.935H140.237V28.5087ZM153.579 25.4968C154.029 26.0544 154.086 26.9308 153.707 27.4511C153.356 27.9346 152.035 28.218 150.844 28.0656L149.87 27.9408V26.4012V24.8616L151.53 24.9374C152.975 25.0033 153.24 25.0757 153.579 25.4968ZM97.3949 27.9342C97.7372 29.034 98.0169 30.0069 98.0169 30.0963C98.0169 30.1858 97.4078 30.2589 96.6631 30.2589C95.6683 30.2589 95.3324 30.1906 95.3988 30.0015C95.4481 29.8601 95.7517 28.8872 96.0733 27.8395C96.395 26.7918 96.6839 25.9348 96.7152 25.9348C96.747 25.9348 97.053 26.8346 97.3949 27.9342ZM109.29 28.5087C109.29 30.6284 109.252 30.8763 108.931 30.8722C108.482 30.8664 107.77 30.2985 107.469 29.7063C107.343 29.4588 107.24 28.8262 107.24 28.3005C107.24 27.5185 107.349 27.2349 107.839 26.7426C108.168 26.4115 108.63 26.1407 108.864 26.1407C109.27 26.1407 109.29 26.2488 109.29 28.5087ZM113.909 26.61C114.571 27.1822 114.854 28.4698 114.535 29.453C114.335 30.0687 113.22 31.0826 112.743 31.0826C112.647 31.0826 112.568 29.9707 112.568 28.6117C112.568 26.3015 112.595 26.1407 112.967 26.1407C113.186 26.1407 113.61 26.352 113.909 26.61ZM164.822 28.0993C165.166 29.1767 165.447 30.1033 165.447 30.1584C165.447 30.2137 164.847 30.2589 164.115 30.2589C163.145 30.2589 162.782 30.1846 162.782 29.9859C162.782 29.8358 163.017 29.0251 163.303 28.1842C163.59 27.3434 163.863 26.5398 163.912 26.3981C164.076 25.9142 164.198 26.1423 164.822 28.0993ZM80.2887 44.5579C79.245 44.9448 78.0295 46.2414 77.7447 47.2721C77.3342 48.7578 77.4641 50.6533 78.0594 51.853C78.7939 53.334 79.8173 53.9986 81.5319 54.1082C82.5723 54.1749 83.0184 54.0999 83.7759 53.7314C84.833 53.2175 85.673 52.1224 85.8499 51.0286L85.9633 50.3263H85.1196C84.3238 50.3263 84.2648 50.3682 84.0764 51.0701C83.8137 52.0505 83.2783 52.5069 82.2222 52.6492C80.5509 52.8739 79.4321 51.7802 79.2197 49.7129C78.9391 46.9792 80.8149 45.1005 82.9364 45.9911C83.4501 46.2064 83.7801 46.5178 83.9367 46.9345C84.1455 47.4899 84.2611 47.5558 85.0329 47.5558H85.896L85.7126 46.9124C85.443 45.9676 85.0117 45.3935 84.1879 44.882C83.2446 44.2964 81.4061 44.1436 80.2887 44.5579ZM124.55 44.6481C122.893 45.404 121.961 47.0515 121.961 49.2206C121.961 52.2619 123.737 54.1445 126.606 54.1445C129.553 54.1445 131.504 51.2276 130.81 47.8634C130.232 45.0686 127.125 43.4728 124.55 44.6481ZM144.168 44.4832C143.218 44.7747 141.819 46.2451 141.514 47.2707C141.074 48.7513 141.191 50.6247 141.8 51.853C142.522 53.3101 143.503 53.952 145.217 54.0902C147.519 54.2758 149.266 53.0361 149.598 50.9821L149.719 50.2324H148.88C148.074 50.2324 148.033 50.2641 147.818 51.0655C147.518 52.1855 146.626 52.7611 145.387 52.634C144.151 52.5074 143.383 51.7084 143.073 50.225C142.651 48.2001 143.346 46.4957 144.824 45.9301C145.932 45.5065 147.176 45.9305 147.616 46.882C147.892 47.4793 148.013 47.547 148.808 47.5512C149.632 47.5553 149.683 47.5236 149.551 47.092C149.025 45.3793 147.862 44.4716 146.041 44.352C145.385 44.3089 144.542 44.3678 144.168 44.4832ZM162.261 44.6481C161.345 45.0661 160.408 46.0692 159.984 47.0856C159.574 48.0702 159.637 50.5736 160.097 51.5707C160.567 52.5875 161.632 53.6016 162.557 53.9111C163.648 54.2772 165.213 54.1957 166.185 53.7227C168.838 52.4323 169.57 48.131 167.525 45.8521C166.154 44.3234 164.035 43.8387 162.261 44.6481ZM179.689 44.645C176.089 46.288 176.139 52.3319 179.765 53.854C180.576 54.1938 182.043 54.2297 183.101 53.9345C184.023 53.6771 185.379 52.2449 185.746 51.1419C186.119 50.0178 186.075 48.0278 185.655 47.0409C184.66 44.6994 181.952 43.6119 179.689 44.645ZM87.3594 49.2031V53.9387H90.8439H94.3279V53.218V52.4972H91.6636H88.9989V51.1589V49.8207H91.3563H93.7132V49.0999V48.3792H91.3563H88.9989V47.1436V45.9083H91.5609H94.1228V45.1876V44.4669H90.7411H87.3594V49.2031ZM95.3559 46.2686C95.3591 48.3216 95.5665 48.8793 96.5853 49.5761C97.2368 50.0214 97.4663 50.0574 99.1956 49.9846L101.091 49.9045V51.9216V53.9387H101.911H102.731V49.2031V44.4669H101.911H101.091V46.4082V48.3497L99.9854 48.4884C97.6101 48.7863 96.9921 48.2659 96.9921 45.9653V44.4669H96.1724H95.3527L95.3559 46.2686ZM104.576 49.2031V53.9387H108.06H111.544V53.218V52.4972H108.982H106.42V51.1659V49.834L108.726 49.776L111.032 49.7175L111.096 49.0484L111.16 48.3792H108.79H106.42V47.1436V45.9083H108.879H111.339V45.1876V44.4669H107.957H104.576V49.2031ZM112.925 44.59C112.857 44.6576 112.793 46.7886 112.781 49.3261L112.761 53.9387H113.69H114.618V51.8797V49.8207H116.668H118.717V51.8797V53.9387H119.64H120.562V49.2031V44.4669H119.756C118.778 44.4669 118.668 44.7072 118.74 46.6812L118.79 48.0702L116.704 48.1291L114.618 48.1876V46.3271V44.4669H113.833C113.4 44.4669 112.992 44.5223 112.925 44.59ZM132.398 44.5861C132.313 44.6716 132.244 46.8176 132.244 49.3546V53.9677L135.408 53.9018L138.572 53.836L139.205 53.2267C140.476 52.0017 140.474 50.003 139.199 49.2247C138.617 48.8688 138.615 48.8646 139.018 48.4612C139.972 47.5019 139.835 45.8199 138.737 45.001C138.23 44.6227 137.815 44.5614 135.355 44.5002C133.813 44.4619 132.483 44.5007 132.398 44.5861ZM151.1 49.2031V53.9387H151.919H152.74V52.3978C152.74 50.9959 152.792 50.7974 153.321 50.2029C153.641 49.8432 154.003 49.6116 154.126 49.6876C154.248 49.7636 154.972 50.7514 155.733 51.8824L157.118 53.9387H158.225H159.333L158.738 53.1668C157.747 51.8783 155.404 48.4188 155.404 48.2434C155.404 48.1526 156.209 47.2657 157.193 46.2728L158.982 44.4669H157.965C156.949 44.4669 156.946 44.4689 154.844 46.5739L152.74 48.6809V46.5739V44.4669H151.919H151.1V49.2031ZM170.161 49.2031V53.9387H170.98H171.8V49.9234V45.9083H174.157H176.514V45.1876V44.4669H173.337H170.161V49.2031ZM127.644 46.0304C129.048 46.6992 129.619 49.321 128.772 51.1967C128.317 52.2039 127.503 52.7036 126.318 52.7036C123.545 52.7036 122.598 47.8298 125.05 46.1733C125.868 45.6204 126.689 45.5753 127.644 46.0304ZM165.331 46.0186C167.35 46.9811 167.435 51.3616 165.455 52.3904C163.394 53.4607 161.353 51.8649 161.349 49.1819C161.345 46.5809 163.282 45.0418 165.331 46.0186ZM183.214 46.3478C184.8 47.8164 184.611 51.327 182.892 52.3476C180.919 53.5182 178.768 51.9055 178.768 49.2542C178.768 47.6295 179.42 46.3699 180.511 45.8879C181.217 45.5753 182.642 45.8177 183.214 46.3478ZM137.457 46.1088C137.87 46.2668 137.983 46.451 137.983 46.9682C137.983 48.0992 137.53 48.3792 135.697 48.3792H134.089V47.1436V45.9083H135.51C136.292 45.9083 137.168 45.9987 137.457 46.1088ZM137.504 49.8336C138.217 50.1062 138.386 50.3655 138.39 51.1986C138.395 52.2066 137.811 52.4972 135.785 52.4972H134.089V51.0562V49.6148H135.51C136.292 49.6148 137.189 49.7129 137.504 49.8336ZM133.605 60.4068C131.803 61.0773 130.778 62.7757 130.786 65.0797C130.795 68.0239 132.262 69.8001 134.82 69.9636C137.014 70.1041 138.705 68.9238 139.106 66.9702C139.225 66.3918 139.182 66.2964 138.766 66.2113C137.938 66.0418 137.583 66.1436 137.461 66.5852C137.096 67.9051 136.316 68.5585 135.104 68.5585C133.583 68.5585 132.642 67.3718 132.508 65.2851C132.439 64.2144 132.504 63.7728 132.814 63.2049C133.313 62.2908 134.374 61.5572 135.195 61.5586C136.045 61.5595 137.121 62.2457 137.282 62.8895C137.397 63.35 137.52 63.4108 138.326 63.4108C139.18 63.4108 139.231 63.3799 139.098 62.9475C138.572 61.2343 137.349 60.2783 135.556 60.1774C134.892 60.1401 134.058 60.2382 133.605 60.4068ZM76.907 60.4386C76.907 60.503 77.6102 62.0265 78.47 63.8239L80.0334 67.0927L79.6326 67.7743C79.2768 68.379 79.1354 68.4536 78.3769 68.4379C77.5461 68.4209 77.5217 68.4393 77.5217 69.0849C77.5217 69.8305 77.7784 70 78.9064 70C80.1118 70 80.9748 68.8436 83.1695 64.2858L85.0786 60.322H84.1588H83.2386L82.0692 62.8153L80.8997 65.3082L79.7943 62.8153L78.6893 60.322H77.7982C77.3079 60.322 76.907 60.3745 76.907 60.4386ZM85.925 65.0581V69.7941H86.7448H87.5645V67.7485V65.7033L89.632 65.6379C90.7692 65.602 91.7374 65.6116 91.7839 65.6586C91.8304 65.7061 91.8687 66.6557 91.8687 67.7692V69.7941H92.6884H93.5081V65.0581V60.322H92.6884H91.8687V62.1752V64.0284H89.7164H87.5645V62.1752V60.322H86.7448H85.925V65.0581ZM95.3527 65.0581V69.7941H96.3406H97.329L98.327 67.9926C98.8758 67.0015 99.7688 65.4067 100.311 64.4488L101.296 62.7076V66.2509V69.7941H102.116H102.936V65.0466V60.2995L101.967 60.3621L100.999 60.4252L99.0468 63.8985L97.0949 67.3722L97.0387 63.8469L96.9825 60.322H96.1673H95.3527V65.0581ZM104.905 60.6481C104.837 60.8272 104.78 62.9581 104.78 65.3837V69.7941H107.554C110.612 69.7941 111.386 69.6016 112.124 68.6585C112.933 67.626 112.563 65.2801 111.541 64.954C111.133 64.8241 111.135 64.8071 111.641 64.2034C112.411 63.2841 112.371 61.9219 111.552 61.1524C110.788 60.4362 110.209 60.322 107.339 60.322C105.422 60.322 105.008 60.3773 104.905 60.6481ZM114.003 65.0581V69.7941H117.488H120.972V69.0734V68.3527H118.41H115.848V67.0144V65.6757H118.205H120.562V64.9549V64.2347H118.205H115.848V62.9991V61.7635H118.41H120.972V61.0428V60.322H117.488H114.003V65.0581ZM122.406 65.0581V69.7941H123.226H124.046V68.0437C124.046 67.0812 124.115 66.2928 124.2 66.2914C126.572 66.2582 128.008 66.0901 128.459 65.7935C129.685 64.9863 130.157 63.0829 129.464 61.7372C128.916 60.672 127.819 60.3317 124.917 60.3266L122.406 60.322V65.0581ZM140.647 65.0581V69.7941L141.621 69.7937L142.594 69.7928L144.541 66.2955L146.488 62.7988L146.544 66.2964L146.601 69.7941H147.416H148.23V65.0581V60.322H147.251H146.273L144.572 63.3924C142.11 67.8374 142.301 67.8056 142.293 63.7714L142.287 60.322H141.467H140.647V65.0581ZM149.255 61.0428V61.7635H150.69H152.125V65.7788V69.7941H153.047H153.969V65.7788V61.7635H155.404H156.838V61.0428V60.322H153.047H149.255V61.0428ZM157.863 65.0581V69.7941H161.348H164.832V69.0734V68.3527H162.27H159.708V67.0144V65.6757H161.939H164.17L164.261 65.0567C164.31 64.7164 164.306 64.3922 164.25 64.336C164.194 64.2803 163.126 64.2347 161.877 64.2347H159.605V62.9991V61.7635H162.116H164.627V61.0428V60.322H161.245H157.863V65.0581ZM165.242 61.0428V61.7635H166.779H168.316V65.7788V69.7941H169.136H169.955V65.7788V61.7635H171.493H173.03V61.0428V60.322H169.136H165.242V61.0428ZM176.285 60.8885C176.164 61.1998 175.804 62.1494 175.484 62.9991C175.163 63.8483 174.445 65.7249 173.888 67.1687L172.875 69.7941H173.761H174.648L175.098 68.5512L175.549 67.3087L177.415 67.3672L179.281 67.4261L179.687 68.6101L180.093 69.7941H180.968C181.449 69.7941 181.842 69.7246 181.842 69.6399C181.841 69.5547 181.057 67.4468 180.1 64.9554C179.142 62.464 178.359 60.4022 178.359 60.3736C178.359 60.3455 177.941 60.322 177.431 60.322C176.609 60.322 176.479 60.3865 176.285 60.8885ZM110.064 62.084C110.695 62.5284 110.677 63.5038 110.028 63.9303C109.668 64.1674 109.136 64.237 108.03 64.1923C106.618 64.1352 106.518 64.1002 106.453 63.6411C106.416 63.3716 106.443 62.8388 106.514 62.457L106.644 61.7635H108.126C109.136 61.7635 109.753 61.8657 110.064 62.084ZM127.755 62.3553C127.97 62.621 128.145 63.0497 128.145 63.3076C128.145 63.566 127.97 63.9947 127.755 64.2605C127.416 64.6818 127.151 64.7541 125.706 64.82L124.046 64.896V63.3076V61.7197L125.706 61.7957C127.151 61.8616 127.416 61.9339 127.755 62.3553ZM178.116 64.1661L178.727 65.8461L177.569 65.928C176.933 65.9732 176.341 65.951 176.253 65.8797C176.166 65.8078 176.331 65.1069 176.62 64.3226C176.908 63.5379 177.189 62.767 177.244 62.609C177.385 62.2019 177.436 62.2917 178.116 64.1661ZM110.498 65.9653C111.045 66.4627 111.055 67.4026 110.519 67.941C110.17 68.2919 109.836 68.3527 108.265 68.3527H106.42V67.0485C106.42 66.3315 106.489 65.6743 106.574 65.5886C106.658 65.5034 107.479 65.4647 108.397 65.503C109.684 65.5568 110.165 65.6628 110.498 65.9653Z" fill="white"/>
</g>
<defs>
<clipPath id="clip0_1_673">
<rect width="188" height="70" fill="white"/>
</clipPath>
</defs>
</svg>
