<svg width="193" height="60" viewBox="0 0 193 60" fill="none" xmlns="http://www.w3.org/2000/svg">
<g clip-path="url(#clip0_1_528)">
<path d="M43.6389 13.2451C44.5195 13.6405 45.4 13.8381 46.3784 13.8381C50.1944 13.8381 53.2278 10.774 53.2278 6.91896C53.2278 3.06417 50.1944 0 46.3784 0C42.8562 0 39.9207 2.76767 39.5294 6.22705C38.9424 11.7624 34.3437 14.4311 29.3534 12.1578C28.4728 11.7624 27.5922 11.5648 26.6139 11.5648C23.0915 11.5648 20.1561 14.3323 19.7647 17.7919C19.1776 23.3272 14.5789 25.996 9.58876 23.7226C8.70815 23.3272 7.82757 23.1296 6.84912 23.1296C3.03319 23.1296 0 26.1937 0 30.0485C0 33.9035 3.03319 36.9675 6.84916 36.9675C7.82761 36.9675 8.80606 36.7699 9.5888 36.3745C14.5789 34.1011 19.1776 36.7699 19.7648 42.3049C20.1561 45.7649 22.9936 48.5322 26.6139 48.5322C30.4297 48.5322 33.4631 45.4684 33.4631 41.6131C33.4631 37.7586 30.4297 34.6943 26.6139 34.6943C25.6354 34.6943 24.6571 34.8919 23.8742 35.2873C19.0798 37.4621 14.6767 35.0897 13.7962 30.0485C14.6768 25.0074 19.0798 22.6352 23.8742 24.8099C24.7548 25.2052 25.6354 25.4029 26.6139 25.4029C30.234 25.4029 33.1695 22.6352 33.4631 19.1756C34.0501 13.6405 38.6488 10.9718 43.6389 13.2451Z" fill="#D6106E"/>
<path d="M86.0068 23.0325C85.0284 23.0325 84.0501 23.2303 83.2674 23.6256C78.2769 25.8991 73.6785 23.2303 73.0915 17.695C72.6998 14.2354 69.8625 11.4678 66.2421 11.4678C62.4261 11.4678 59.3928 14.5319 59.3928 18.3869C59.3928 22.2417 62.4261 25.3059 66.2421 25.3059C67.2205 25.3059 68.1992 25.1083 68.9819 24.7129C73.7764 22.5385 78.1794 24.9107 79.06 29.9517C78.1794 34.9927 73.7764 37.3652 68.9819 35.1903C68.101 34.795 67.2205 34.5973 66.2421 34.5973C62.7196 34.5973 59.7845 37.3651 59.3928 40.8247C58.8057 46.3598 54.2073 49.0283 49.2173 46.7551C48.3364 46.3598 47.4562 46.1621 46.4774 46.1621C42.6614 46.1621 39.6284 49.2263 39.6284 53.0812C39.6284 56.9361 42.6614 60.0003 46.4774 60.0003C50 60.0003 52.9351 57.2326 53.3264 53.773C53.9135 48.238 58.5126 45.5691 63.5027 47.8423C64.3832 48.238 65.2637 48.4353 66.2421 48.4353C69.7646 48.4353 72.6998 45.6679 73.0915 42.2084C73.6785 36.673 78.2769 34.0044 83.2674 36.2776C84.1479 36.6729 85.0284 36.8706 86.0068 36.8706C89.8229 36.8706 92.8558 33.8065 92.8558 29.9517C92.8558 26.1956 89.8229 23.0325 86.0068 23.0325Z" fill="#D6106E"/>
<path d="M39.6284 29.9504C39.6284 26.0954 42.6614 23.0312 46.4774 23.0312C50.1956 23.0312 53.3264 26.1943 53.3264 29.9504C53.3264 33.8052 50.2935 36.8694 46.4774 36.8694C42.6614 36.8694 39.6284 33.8052 39.6284 29.9504Z" fill="#D6106E"/>
</g>
<g clip-path="url(#clip1_1_528)">
<path d="M114.758 25.9923H111.048V14.9474H107.143V11.4287H118.565V14.9474H114.758V25.9923Z" fill="#1A1A1A"/>
<path fill-rule="evenodd" clip-rule="evenodd" d="M126.762 11.4287C130.276 11.4287 132.033 13.97 132.033 16.5112C132.033 19.0527 130.276 21.6917 126.762 21.6917H124.712V25.8947H121.002V11.4287H126.762ZM126.859 14.8498H124.712V18.4663H126.859C129.105 18.4663 129.105 14.8498 126.859 14.8498Z" fill="#1A1A1A"/>
<path d="M144.919 22.5713H138.476V20.4211H144.333V17.1956H138.476V14.8498H144.919V11.4287H134.766V25.9923H144.919V22.5713Z" fill="#1A1A1A"/>
<path d="M154.487 14.9474V25.9923H150.777V14.9474H146.97V11.4287H158.392V14.9474H154.487Z" fill="#1A1A1A"/>
<path fill-rule="evenodd" clip-rule="evenodd" d="M171.963 21.0075C171.963 18.2706 170.596 16.4136 166.691 16.4136H164.544V11.4287H160.834V25.9923H166.789C170.01 25.9923 171.963 23.8421 171.963 21.0075ZM166.691 22.7669H164.544V19.3459H166.691C167.765 19.3459 168.351 19.9323 168.351 21.0075C168.351 21.8871 167.961 22.7669 166.691 22.7669Z" fill="#1A1A1A"/>
<path d="M178.208 22.5713H184.651V25.9923H174.499V11.4287H184.651V14.8498H178.208V17.1956H184.066V20.4211H178.208V22.5713Z" fill="#1A1A1A"/>
<path d="M114.754 41.0454L111.728 33.9102H107.92V48.4737H111.63V44.2708L111.337 41.3386H111.435L113.387 46.3235H115.926L117.878 41.3386H117.976L117.78 44.2708V48.4737H121.49V33.9102H117.78L114.754 41.0454Z" fill="#1A1A1A"/>
<path d="M128.52 39.3839H132.718V33.9102H136.428V48.4737H132.718V43.0003H128.52V48.4737H124.811V33.9102H128.52V39.3839Z" fill="#1A1A1A"/>
<path d="M139.747 48.4737H149.899V45.0529H143.456V42.9024H149.314V39.6771H143.456V37.3312H149.899V33.9102H139.747V48.4737Z" fill="#1A1A1A"/>
<path d="M156.443 39.3839H160.641V33.9102H164.35V48.4737H160.641V43.0003H156.443V48.4737H152.733V33.9102H156.443V39.3839Z" fill="#1A1A1A"/>
<path d="M172.355 40.0679L171.184 42.707H171.086L171.379 40.5567V34.008H167.669V48.5716H171.086L174.6 42.8046L175.967 39.9703H176.065L175.674 42.707V48.4737H179.384V33.9102H176.065L172.355 40.0679Z" fill="#1A1A1A"/>
<path d="M192.857 33.9102V37.3312H186.414V39.6771H192.272V42.9024H186.414V45.0529H192.857V48.4737H182.705V33.9102H192.857Z" fill="#1A1A1A"/>
</g>
<defs>
<clipPath id="clip0_1_528">
<rect width="92.8571" height="60" fill="white"/>
</clipPath>
<clipPath id="clip1_1_528">
<rect width="85.7143" height="37.1429" fill="white" transform="translate(107.143 11.4287)"/>
</clipPath>
</defs>
</svg>
