<svg width="50" height="50" viewBox="0 0 50 50" fill="none" xmlns="http://www.w3.org/2000/svg">
<path d="M17.708 29.1668H18.3622C18.5922 29.1668 18.7949 29.016 18.861 28.7955L21.4963 20.0111C21.5909 19.6956 22.0461 19.7222 22.1034 20.0466L24.7447 35.0135C24.8032 35.3455 25.2738 35.362 25.3555 35.0349L26.9845 28.5197C27.0424 28.2878 27.2507 28.1251 27.4897 28.1251H32.2913" stroke="#22202A" stroke-width="2" stroke-linecap="round"/>
<path d="M18.7503 8.85417C18.7503 10.2924 19.9162 11.4583 21.3545 11.4583H28.6462C30.0845 11.4583 31.2503 10.2924 31.2503 8.85417M18.7503 8.85417C18.7503 7.41592 19.9162 6.25 21.3545 6.25H28.6462C30.0845 6.25 31.2503 7.41592 31.2503 8.85417M18.7503 8.85417C17.7823 8.85417 17.2983 8.85417 16.8958 8.93423C15.2429 9.263 13.9508 10.5551 13.6221 12.208C13.542 12.6105 13.542 13.0945 13.542 14.0625V32.2917C13.542 37.2021 13.542 39.6573 15.0675 41.1829C16.593 42.7083 19.0482 42.7083 23.9587 42.7083H26.042C30.9524 42.7083 33.4076 42.7083 34.9332 41.1829C36.4587 39.6573 36.4587 37.2021 36.4587 32.2917V14.0625C36.4587 13.0945 36.4587 12.6105 36.3787 12.208C36.0499 10.5551 34.7578 9.263 33.1049 8.93423C32.7024 8.85417 32.2184 8.85417 31.2503 8.85417" stroke="#22202A" stroke-width="2"/>
</svg>
