<svg width="175" height="35" viewBox="0 0 175 35" fill="none" xmlns="http://www.w3.org/2000/svg">
<g clip-path="url(#clip0_1_714)">
<path d="M11.0799 2.05811V14.1821H8.12953V5.23808H2.95035V14.1821H0V2.05811H11.0799Z" fill="white"/>
<path d="M25.8959 5.5191C26.2272 6.30535 26.3952 7.16668 26.3952 8.10818C26.3952 9.04963 26.2272 9.911 25.8959 10.6973C25.5649 11.4835 25.1202 12.1545 24.5617 12.7204C24.0033 13.2863 23.3608 13.727 22.6343 14.0375C21.9079 14.353 21.1468 14.5082 20.3561 14.5082C19.4715 14.5082 18.7203 14.353 18.0927 14.0475C17.465 13.742 17.0499 13.3614 16.8522 12.9057V19.1906H13.9019V2.05867H16.7583V3.33068C16.961 2.87495 17.381 2.49435 18.0235 2.18887C18.6659 1.88339 19.427 1.72815 20.3116 1.72815C21.1172 1.72815 21.8881 1.88339 22.6245 2.18887C23.3608 2.49435 24.0082 2.93005 24.5617 3.49593C25.1202 4.06183 25.5649 4.73785 25.8959 5.5191ZM23.1681 9.4152C23.3361 9.01458 23.425 8.5789 23.425 8.10818C23.425 7.63745 23.341 7.20675 23.1681 6.81113C22.9951 6.42053 22.7628 6.08 22.4613 5.79953C22.1599 5.5191 21.7942 5.29875 21.3692 5.1385C20.9442 4.98328 20.4747 4.90315 19.9657 4.90315C19.2244 4.90315 18.5622 5.05838 17.9938 5.36385C17.4206 5.66933 17.04 6.04995 16.8572 6.50565V9.73073C17.045 10.1864 17.4206 10.5671 17.9938 10.8725C18.5671 11.178 19.2244 11.3332 19.9657 11.3332C20.4747 11.3332 20.9442 11.2531 21.3692 11.0979C21.7942 10.9426 22.1599 10.7223 22.4613 10.4369C22.7628 10.1564 23 9.81585 23.1681 9.4152Z" fill="white"/>
<path d="M31.3916 2.05811V9.33453L36.8031 2.05811H39.7533V14.1821H36.8476V6.91071L31.4361 14.1821H28.4858V2.05811H31.3916Z" fill="white"/>
<path d="M54.4804 8.13318C54.4804 9.05965 54.3071 9.911 53.9716 10.6872C53.6304 11.4634 53.1706 12.1345 52.5876 12.7004C52.0046 13.2663 51.3374 13.707 50.5761 14.0275C49.8154 14.348 49.0144 14.5082 48.1596 14.5082C47.3096 14.5082 46.5041 14.348 45.7429 14.0275C44.9819 13.707 44.3146 13.2613 43.7316 12.7004C43.1534 12.1345 42.6889 11.4634 42.3479 10.6872C42.0069 9.911 41.8389 9.05965 41.8389 8.13318C41.8389 7.22178 42.0116 6.37545 42.3479 5.5892C42.6889 4.80295 43.1484 4.12693 43.7316 3.55103C44.3146 2.98013 44.9819 2.5294 45.7429 2.2089C46.4991 1.8884 47.3044 1.72815 48.1596 1.72815C49.0094 1.72815 49.8154 1.8884 50.5761 2.2089C51.3374 2.5294 52.0046 2.98013 52.5876 3.55103C53.1656 4.1219 53.6304 4.80295 53.9716 5.5892C54.3071 6.37545 54.4804 7.22178 54.4804 8.13318ZM45.0709 6.82615C44.8979 7.22678 44.8139 7.66245 44.8139 8.13318C44.8139 8.60395 44.8979 9.0346 45.0709 9.43025C45.2389 9.82085 45.4761 10.1614 45.7776 10.4418C46.0791 10.7223 46.4349 10.9426 46.8449 11.1029C47.2551 11.2581 47.6899 11.3383 48.1546 11.3383C48.6194 11.3383 49.0541 11.2581 49.4541 11.1029C49.8544 10.9476 50.2104 10.7273 50.5121 10.4418C50.8131 10.1614 51.0554 9.82085 51.2331 9.43025C51.4114 9.03965 51.5004 8.60395 51.5004 8.13318C51.5004 7.66245 51.4114 7.22678 51.2331 6.82615C51.0554 6.4255 50.8131 6.08498 50.5121 5.80458C50.2104 5.5241 49.8594 5.30378 49.4541 5.14353C49.0489 4.98828 48.6194 4.90815 48.1546 4.90815C47.6899 4.90815 47.2501 4.98828 46.8449 5.14353C46.4349 5.29875 46.0791 5.5191 45.7776 5.80458C45.4761 6.08498 45.2389 6.4255 45.0709 6.82615Z" fill="white"/>
<path d="M68.516 5.5191C68.847 6.30535 69.0152 7.16668 69.0152 8.10818C69.0152 9.04963 68.847 9.911 68.516 10.6973C68.1847 11.4835 67.74 12.1545 67.1812 12.7204C66.6232 13.2863 65.9807 13.727 65.254 14.0375C64.5277 14.353 63.7665 14.5082 62.9757 14.5082C62.0912 14.5082 61.34 14.353 60.7122 14.0475C60.085 13.742 59.6697 13.3614 59.4722 12.9057V19.1906H56.5215V2.05867H59.3782V3.33068C59.5807 2.87495 60.0007 2.49435 60.6432 2.18887C61.2857 1.88339 62.047 1.72815 62.9317 1.72815C63.737 1.72815 64.508 1.88339 65.2445 2.18887C65.9807 2.49435 66.6282 2.93005 67.1812 3.49593C67.735 4.06183 68.1797 4.73785 68.516 5.5191ZM65.7832 9.4152C65.9507 9.01458 66.0402 8.5789 66.0402 8.10818C66.0402 7.63745 65.956 7.20675 65.7832 6.81113C65.61 6.42053 65.378 6.08 65.0762 5.79953C64.7747 5.5191 64.409 5.29875 63.984 5.1385C63.5592 4.98328 63.0895 4.90315 62.5807 4.90315C61.8392 4.90315 61.177 5.05838 60.6087 5.36385C60.0355 5.66933 59.655 6.04995 59.4722 6.50565V9.73073C59.66 10.1864 60.0355 10.5671 60.6087 10.8725C61.182 11.178 61.8392 11.3332 62.5807 11.3332C63.0895 11.3332 63.5592 11.2531 63.984 11.0979C64.409 10.9426 64.7747 10.7223 65.0762 10.4369C65.378 10.1514 65.615 9.81585 65.7832 9.4152Z" fill="white"/>
<path d="M74.001 2.05811V9.33453L79.4122 2.05811H82.3627V14.1821H79.457V6.91071L74.0452 14.1821H71.0952V2.05811H74.001Z" fill="white"/>
<path d="M94.6635 5.23808H90.9667V14.1821H88.0167V5.23808H84.3247V2.05811H94.6635V5.23808Z" fill="white"/>
<path d="M102.491 11.498C103.232 11.498 103.949 11.3628 104.626 11.0873C105.308 10.8119 105.817 10.4464 106.158 9.99061L107.063 12.2993C106.692 12.9253 106.099 13.451 105.284 13.8767C104.468 14.3024 103.505 14.5127 102.392 14.5127C101.478 14.5127 100.633 14.3625 99.8475 14.067C99.0663 13.7666 98.3893 13.3459 97.816 12.7951C97.2428 12.2442 96.7933 11.5781 96.467 10.7969C96.1405 10.0106 95.9775 9.12426 95.9775 8.13771C95.9775 7.27633 96.1208 6.46011 96.4078 5.68888C96.6943 4.92266 97.1045 4.24161 97.6383 3.65068C98.172 3.06476 98.8145 2.59401 99.5655 2.24848C100.317 1.90293 101.162 1.73267 102.111 1.73267C102.995 1.73267 103.796 1.90794 104.513 2.2635C105.234 2.61406 105.847 3.08478 106.346 3.67571C106.85 4.26663 107.24 4.94268 107.517 5.71391C107.794 6.48511 107.937 7.29136 107.937 8.13771C107.937 8.31298 107.933 8.49326 107.927 8.68856C107.918 8.88386 107.898 9.05416 107.868 9.19438H98.9973C99.1355 9.99566 99.5208 10.5816 100.159 10.9471C100.801 11.3127 101.577 11.498 102.491 11.498ZM104.933 6.74556C104.839 6.10453 104.527 5.61376 104.004 5.27323C103.475 4.93768 102.847 4.76746 102.121 4.76746C101.394 4.76746 100.742 4.93768 100.168 5.27323C99.595 5.61376 99.2493 6.09951 99.1258 6.74556H104.933Z" fill="white"/>
<path d="M119.616 5.23808H115.919V14.1821H112.973V5.23808H109.277V2.05811H119.616V5.23808Z" fill="white"/>
<path d="M125.368 4.54212C125.076 4.54212 124.81 4.5872 124.567 4.67735C124.321 4.76747 124.098 4.88767 123.9 5.0329C123.703 5.17812 123.52 5.34837 123.357 5.53867C123.194 5.72897 123.055 5.93432 122.932 6.14965L121.879 4.32177C121.968 3.97122 122.121 3.6407 122.338 3.33022C122.556 3.01972 122.823 2.7493 123.139 2.51895C123.456 2.28858 123.821 2.10329 124.236 1.96808C124.647 1.83287 125.096 1.76276 125.576 1.76276C126.198 1.76276 126.752 1.85791 127.231 2.04821C127.711 2.23851 128.111 2.50392 128.437 2.84445C128.758 3.185 129.006 3.5806 129.174 4.03132C129.341 4.48202 129.426 4.9678 129.426 5.4886C129.426 5.92927 129.376 6.33495 129.277 6.7005C129.178 7.06607 129.03 7.42667 128.832 7.77717C128.635 8.12775 128.393 8.4833 128.106 8.8439C127.814 9.20445 127.483 9.60007 127.103 10.0307L125.902 11.4029H129.663V14.1822H121.973V12.0289L125.398 8.25295C125.64 7.98252 125.852 7.74712 126.031 7.54185C126.208 7.33652 126.357 7.1462 126.475 6.9559C126.594 6.7656 126.683 6.59035 126.742 6.41507C126.801 6.2398 126.836 6.0445 126.836 5.82912C126.836 5.46857 126.702 5.1631 126.44 4.9127C126.169 4.66732 125.818 4.54212 125.368 4.54212Z" fill="white"/>
<path d="M134.748 2.22849C135.514 1.918 136.319 1.76276 137.174 1.76276C138.024 1.76276 138.83 1.918 139.601 2.22849C140.367 2.53897 141.039 2.97467 141.612 3.53555C142.19 4.09642 142.645 4.76747 142.981 5.54872C143.317 6.32992 143.485 7.1863 143.485 8.11772C143.485 9.05922 143.317 9.91555 142.981 10.6917C142.645 11.468 142.19 12.139 141.612 12.6999C141.034 13.2608 140.367 13.6965 139.601 14.007C138.835 14.3175 138.024 14.4727 137.174 14.4727C136.324 14.4727 135.514 14.3175 134.748 14.007C133.982 13.6965 133.31 13.2608 132.736 12.6999C132.158 12.139 131.703 11.468 131.368 10.6917C131.031 9.91555 130.863 9.05922 130.863 8.11772C130.863 7.1863 131.031 6.32992 131.368 5.54872C131.703 4.76747 132.158 4.09642 132.736 3.53555C133.31 2.97967 133.982 2.54397 134.748 2.22849ZM137.174 11.6933C137.688 11.6933 138.173 11.6082 138.627 11.4279C139.082 11.2526 139.472 11.0073 139.803 10.6968C140.135 10.3863 140.392 10.0107 140.584 9.57502C140.772 9.13935 140.871 8.65357 140.871 8.12275C140.871 7.6019 140.777 7.1212 140.584 6.67547C140.392 6.23475 140.135 5.85917 139.803 5.54367C139.472 5.2332 139.082 4.98782 138.627 4.81255C138.173 4.63727 137.688 4.54712 137.174 4.54712C136.65 4.54712 136.161 4.63727 135.716 4.81255C135.271 4.98782 134.881 5.2332 134.55 5.54367C134.219 5.8542 133.957 6.23475 133.769 6.67547C133.581 7.11615 133.483 7.6019 133.483 8.12275C133.483 8.65857 133.577 9.13935 133.769 9.57502C133.957 10.0107 134.219 10.3863 134.55 10.6968C134.881 11.0073 135.267 11.2526 135.716 11.4279C136.161 11.6032 136.646 11.6933 137.174 11.6933Z" fill="white"/>
<path d="M147.671 11.7032C148.205 11.7032 148.639 11.573 148.966 11.3126C149.297 11.0522 149.46 10.7017 149.46 10.261C149.46 9.86536 149.312 9.54986 149.015 9.31951C148.719 9.08916 148.323 8.97393 147.819 8.97393C147.473 8.97393 147.177 9.01403 146.925 9.09416C146.672 9.17428 146.485 9.25941 146.366 9.34956L145.946 7.45158L148.002 4.84248H144.691V2.05811H151.397V4.04121L149.356 6.58021C149.647 6.65031 149.949 6.76548 150.265 6.92573C150.582 7.09098 150.873 7.31633 151.145 7.60181C151.412 7.89226 151.634 8.25286 151.807 8.69351C151.98 9.13418 152.064 9.66503 152.064 10.286C152.064 10.8619 151.961 11.4028 151.753 11.9136C151.545 12.4194 151.254 12.8651 150.868 13.2457C150.483 13.6263 150.023 13.9217 149.48 14.1421C148.936 14.3624 148.333 14.4726 147.666 14.4726C147.162 14.4726 146.712 14.4175 146.312 14.3023C145.912 14.1872 145.561 14.0419 145.259 13.8516C144.958 13.6663 144.706 13.461 144.508 13.2306C144.305 13.0053 144.162 12.7749 144.073 12.5346L144.676 10.2961C144.997 10.6917 145.393 11.0222 145.862 11.2876C146.337 11.5681 146.94 11.7032 147.671 11.7032Z" fill="white"/>
<path d="M157.15 2.22849C157.916 1.918 158.721 1.76276 159.576 1.76276C160.426 1.76276 161.232 1.918 162.003 2.22849C162.769 2.53897 163.441 2.97467 164.014 3.53555C164.592 4.09642 165.047 4.76747 165.383 5.54872C165.719 6.32992 165.887 7.1863 165.887 8.11772C165.887 9.05922 165.719 9.91555 165.383 10.6917C165.047 11.468 164.592 12.139 164.014 12.6999C163.436 13.2608 162.769 13.6965 162.003 14.007C161.237 14.3175 160.431 14.4727 159.576 14.4727C158.727 14.4727 157.916 14.3175 157.15 14.007C156.384 13.6965 155.712 13.2608 155.133 12.6999C154.556 12.139 154.101 11.468 153.765 10.6917C153.429 9.91555 153.261 9.05922 153.261 8.11772C153.261 7.1863 153.429 6.32992 153.765 5.54872C154.101 4.76747 154.556 4.09642 155.133 3.53555C155.712 2.97967 156.384 2.54397 157.15 2.22849ZM159.576 11.6933C160.09 11.6933 160.575 11.6082 161.029 11.4279C161.484 11.2526 161.874 11.0073 162.205 10.6968C162.536 10.3863 162.798 10.0107 162.986 9.57502C163.174 9.13935 163.273 8.65357 163.273 8.12275C163.273 7.6019 163.179 7.1212 162.986 6.67547C162.798 6.23475 162.536 5.85917 162.205 5.54367C161.874 5.2332 161.484 4.98782 161.029 4.81255C160.575 4.63727 160.09 4.54712 159.576 4.54712C159.053 4.54712 158.563 4.63727 158.119 4.81255C157.669 4.98782 157.283 5.2332 156.952 5.54367C156.621 5.8542 156.364 6.23475 156.171 6.67547C155.979 7.11615 155.885 7.6019 155.885 8.12275C155.885 8.65857 155.979 9.13935 156.171 9.57502C156.364 10.0107 156.621 10.3863 156.952 10.6968C157.283 11.0073 157.669 11.2526 158.119 11.4279C158.563 11.6032 159.047 11.6933 159.576 11.6933Z" fill="white"/>
<path d="M172.237 0H169.841L167.078 4.8476H169.47L172.237 0Z" fill="white"/>
<path d="M169.841 0H172.237L175 4.8476H172.608L169.841 0Z" fill="white"/>
<path d="M8.52992 26.3613V29.9618L11.2084 26.3613H12.6713V32.3655H11.2332V28.765L8.5497 32.3655H7.0918V26.3613H8.52992Z" fill="white"/>
<path d="M14.1787 30.7933C14.3022 30.5828 14.4208 30.3475 14.5345 30.082C14.6482 29.8168 14.7519 29.5263 14.8458 29.2008C14.9397 28.8803 15.0089 28.5295 15.0633 28.159C15.1176 27.7885 15.1424 27.3878 15.1424 26.9573V26.3613H19.4221V30.7883H20.2524V33.958H18.839V32.3608H14.9842V33.958H13.5708V30.7883H14.1787V30.7933ZM17.9593 30.7933V27.9388H16.452C16.3828 28.6148 16.279 29.1805 16.1406 29.6363C16.0023 30.092 15.854 30.4778 15.6909 30.7933H17.9593Z" fill="white"/>
<path d="M24.0918 31.0335C24.4575 31.0335 24.8133 30.9632 25.1493 30.828C25.4855 30.6927 25.7375 30.5125 25.9105 30.2872L26.3603 31.429C26.1773 31.7395 25.8808 32 25.4805 32.2102C25.0753 32.4205 24.6008 32.5257 24.0473 32.5257C23.5926 32.5257 23.1775 32.4505 22.7871 32.3052C22.4016 32.1602 22.0656 31.9497 21.779 31.6745C21.4923 31.399 21.2749 31.0735 21.1118 30.6827C20.9487 30.2972 20.8696 29.8565 20.8696 29.3657C20.8696 28.94 20.9388 28.5345 21.0821 28.1537C21.2254 27.7732 21.4281 27.4377 21.69 27.1472C21.9569 26.8567 22.2731 26.6265 22.6438 26.4562C23.0145 26.286 23.4345 26.2007 23.904 26.2007C24.3389 26.2007 24.7392 26.286 25.095 26.4612C25.4508 26.6365 25.7523 26.8717 26.0043 27.1622C26.2515 27.4527 26.449 27.7882 26.5875 28.169C26.7258 28.5495 26.795 28.95 26.795 29.3707C26.795 29.456 26.795 29.546 26.79 29.6462C26.785 29.7412 26.7753 29.8265 26.7605 29.8965H22.367C22.4362 30.2922 22.629 30.5827 22.9403 30.763C23.2566 30.9432 23.6371 31.0335 24.0918 31.0335ZM25.2975 28.6797C25.253 28.3592 25.1 28.1187 24.838 27.9535C24.5761 27.7882 24.2648 27.7032 23.9089 27.7032C23.5531 27.7032 23.2269 27.7882 22.9403 27.9535C22.6587 28.1187 22.4857 28.3642 22.4214 28.6797H25.2975Z" fill="white"/>
<path d="M33.8276 28.0737C33.9906 28.4642 34.0746 28.89 34.0746 29.3557C34.0746 29.8215 33.9906 30.2522 33.8276 30.6377C33.6643 31.0282 33.4421 31.359 33.1653 31.6392C32.8886 31.9197 32.5723 32.135 32.2116 32.2902C31.8508 32.4455 31.4751 32.5257 31.0848 32.5257C30.6448 32.5257 30.2743 32.4505 29.9628 32.3002C29.6516 32.15 29.4491 31.9597 29.3451 31.7345V34.8442H27.8823V26.361H29.2958V26.992C29.3946 26.7667 29.6021 26.5765 29.9233 26.426C30.2396 26.276 30.6203 26.2007 31.0551 26.2007C31.4553 26.2007 31.8358 26.276 32.2016 26.426C32.5673 26.5765 32.8836 26.7917 33.1603 27.0722C33.4421 27.3525 33.6596 27.6882 33.8276 28.0737ZM32.4733 30.0017C32.5576 29.8015 32.6021 29.586 32.6021 29.3557C32.6021 29.1252 32.5576 28.91 32.4733 28.7147C32.3893 28.5195 32.2708 28.3542 32.1226 28.214C31.9743 28.0737 31.7913 27.9635 31.5838 27.8885C31.3713 27.8132 31.1391 27.7732 30.8871 27.7732C30.5213 27.7732 30.1953 27.8485 29.9086 27.9985C29.6218 28.1487 29.4341 28.3392 29.3451 28.5645V30.162C29.4391 30.3872 29.6268 30.5777 29.9086 30.728C30.1903 30.878 30.5163 30.9532 30.8871 30.9532C31.1391 30.9532 31.3713 30.9132 31.5838 30.838C31.7963 30.763 31.9743 30.6527 32.1226 30.5125C32.2758 30.3722 32.3893 30.202 32.4733 30.0017Z" fill="white"/>
<path d="M35.0877 27.258C35.1965 27.0875 35.33 26.9375 35.498 26.8022C35.661 26.672 35.844 26.5617 36.0465 26.4717C36.2442 26.3815 36.4567 26.3165 36.684 26.2662C36.9115 26.2212 37.1387 26.1962 37.366 26.1962C37.7565 26.1962 38.1122 26.2512 38.4285 26.3565C38.7447 26.4667 39.0217 26.622 39.249 26.8222C39.4762 27.0225 39.6592 27.273 39.7827 27.5732C39.9112 27.8737 39.9705 28.2145 39.9705 28.595V32.361H38.557V31.835C38.4137 32.0605 38.1865 32.2307 37.88 32.346C37.5737 32.461 37.2572 32.5212 36.936 32.5212C36.6197 32.5212 36.3332 32.476 36.0712 32.381C35.8092 32.2857 35.582 32.1555 35.3892 31.9902C35.1915 31.825 35.0432 31.6197 34.9345 31.3742C34.826 31.129 34.7715 30.8535 34.7715 30.553C34.7715 30.2325 34.8357 29.952 34.9592 29.7067C35.0877 29.4612 35.2557 29.256 35.4732 29.0907C35.6857 28.9255 35.933 28.7952 36.2145 28.7102C36.4962 28.625 36.783 28.58 37.0845 28.58C37.4697 28.58 37.7812 28.625 38.0232 28.7152C38.2655 28.8052 38.4285 28.9005 38.5125 29.0007V28.8452C38.5125 28.4947 38.399 28.2145 38.1715 28.004C37.9442 27.7937 37.6132 27.6885 37.1782 27.6885C36.8027 27.6885 36.4617 27.7637 36.1602 27.909C35.8587 28.0542 35.6165 28.2445 35.4387 28.4697L35.0877 27.258ZM38.5125 30.2075C38.4532 30.0972 38.315 30.0022 38.1122 29.922C37.9047 29.842 37.6675 29.802 37.4007 29.802C37.0152 29.802 36.7285 29.862 36.5357 29.9872C36.343 30.1122 36.2492 30.2725 36.2492 30.478C36.2492 30.6782 36.348 30.8435 36.5407 30.9637C36.7385 31.0837 37.0202 31.144 37.3857 31.144C37.6527 31.144 37.89 31.094 38.0975 30.9987C38.305 30.9035 38.4435 30.7835 38.5125 30.6432V30.2075Z" fill="white"/>
<path d="M46.6818 26.3613H48.0956L49.0246 32.3655H47.5766L47.0626 29.1958L45.6788 32.3655H44.5076L43.1288 29.1958L42.5998 32.3655H41.1123L42.0316 26.3613H43.3461L45.0116 30.1973L46.6818 26.3613Z" fill="white"/>
<path d="M51.6487 26.3613V29.9618L54.3272 26.3613H55.7902V32.3655H54.3519V28.765L51.6734 32.3655H50.2104V26.3613H51.6487Z" fill="white"/>
<path d="M65.0857 31.454C64.9075 31.7495 64.621 32 64.2207 32.2102C63.8207 32.4205 63.356 32.5257 62.8273 32.5257C62.412 32.5257 62.0217 32.4455 61.646 32.2902C61.2752 32.135 60.9442 31.9197 60.6577 31.6392C60.3707 31.359 60.1437 31.0232 59.9707 30.6377C59.8025 30.2522 59.7188 29.8215 59.7188 29.3557C59.7188 28.89 59.8025 28.4592 59.9707 28.0737C60.1387 27.683 60.3662 27.3525 60.6577 27.0722C60.9492 26.7917 61.2752 26.5765 61.646 26.426C62.0167 26.276 62.412 26.2007 62.8273 26.2007C63.356 26.2007 63.8155 26.306 64.201 26.5162C64.5865 26.7265 64.8683 26.977 65.036 27.2625L64.621 28.4995C64.4678 28.314 64.2503 28.1437 63.964 27.9985C63.682 27.8532 63.356 27.7782 62.9852 27.7782C62.4465 27.7782 62.0218 27.9235 61.6953 28.214C61.3743 28.5045 61.2113 28.89 61.2113 29.3607C61.2113 29.8365 61.3743 30.217 61.6953 30.5125C62.0168 30.808 62.4465 30.9532 62.9852 30.9532C63.361 30.9532 63.6922 30.878 63.9735 30.7227C64.2555 30.5677 64.4777 30.3972 64.6407 30.212L65.0857 31.454Z" fill="white"/>
<path d="M70.7638 27.9338H68.9355V32.3655H67.4775V27.9338H65.644V26.3613H70.7638V27.9338Z" fill="white"/>
<path d="M71.639 27.258C71.7478 27.0875 71.8813 26.9375 72.0493 26.8022C72.2123 26.672 72.3953 26.5617 72.5978 26.4717C72.7955 26.3815 73.0078 26.3165 73.2353 26.2662C73.4628 26.2212 73.6898 26.1962 73.9173 26.1962C74.3078 26.1962 74.6633 26.2512 74.9798 26.3565C75.296 26.4667 75.5728 26.622 75.7998 26.8222C76.0273 27.0225 76.2103 27.273 76.3338 27.5732C76.462 27.8737 76.5215 28.2145 76.5215 28.595V32.361H75.1083V31.835C74.9598 32.0605 74.7375 32.2307 74.4313 32.346C74.125 32.461 73.8085 32.5212 73.487 32.5212C73.1708 32.5212 72.8843 32.476 72.6223 32.381C72.3608 32.2857 72.1333 32.1555 71.9403 31.9902C71.7428 31.825 71.5943 31.6197 71.4858 31.3742C71.377 31.129 71.3228 30.8535 71.3228 30.553C71.3228 30.2325 71.387 29.952 71.5105 29.7067C71.639 29.4612 71.807 29.256 72.0245 29.0907C72.2368 28.9255 72.484 28.7952 72.766 28.7102C73.0473 28.625 73.3343 28.58 73.6355 28.58C74.0208 28.58 74.3323 28.625 74.5745 28.7152C74.8168 28.8052 74.9798 28.9005 75.064 29.0007V28.8452C75.064 28.4947 74.9503 28.2145 74.7228 28.004C74.4953 27.7937 74.164 27.6885 73.7293 27.6885C73.354 27.6885 73.0128 27.7637 72.7115 27.909C72.41 28.0542 72.1678 28.2445 71.99 28.4697L71.639 27.258ZM75.0685 30.2075C75.0093 30.0972 74.871 30.0022 74.6683 29.922C74.4608 29.842 74.2235 29.802 73.9568 29.802C73.5715 29.802 73.2845 29.862 73.097 29.9872C72.904 30.1122 72.8103 30.2725 72.8103 30.478C72.8103 30.6782 72.9093 30.8435 73.1018 30.9637C73.2998 31.0837 73.581 31.144 73.9468 31.144C74.2138 31.144 74.451 31.094 74.6588 30.9987C74.866 30.9035 75.0045 30.7835 75.0735 30.6432V30.2075H75.0685Z" fill="white"/>
<path d="M79.4271 26.3613V28.4945H82.0269V26.3613H83.4849V32.3655H82.0269V30.067H79.4271V32.3655H77.9644V26.3613H79.4271Z" fill="white"/>
<path d="M90.833 29.3707C90.833 29.8315 90.7493 30.2522 90.5813 30.6327C90.413 31.0182 90.1855 31.3487 89.899 31.6292C89.6123 31.9097 89.281 32.13 88.9058 32.2852C88.53 32.4455 88.1298 32.5257 87.7098 32.5257C87.2898 32.5257 86.8895 32.4455 86.5138 32.2852C86.138 32.125 85.8068 31.9047 85.5205 31.6292C85.234 31.3487 85.0065 31.0182 84.8333 30.6327C84.6658 30.2472 84.5815 29.8265 84.5815 29.3707C84.5815 28.92 84.6658 28.4995 84.8333 28.1137C85.0015 27.7232 85.229 27.3877 85.5205 27.1072C85.8068 26.8217 86.138 26.6015 86.5138 26.4412C86.8895 26.281 87.2898 26.2007 87.7098 26.2007C88.1298 26.2007 88.53 26.281 88.9058 26.4412C89.281 26.6015 89.6123 26.8217 89.899 27.1072C90.1855 27.3927 90.413 27.7282 90.5813 28.1137C90.7493 28.4995 90.833 28.92 90.833 29.3707ZM86.1775 28.7197C86.0938 28.92 86.049 29.1355 86.049 29.3657C86.049 29.6012 86.0888 29.8115 86.1775 30.0067C86.2618 30.202 86.3803 30.3672 86.5285 30.5075C86.6768 30.6477 86.8545 30.758 87.0573 30.833C87.2598 30.9082 87.4778 30.9482 87.7048 30.9482C87.9373 30.9482 88.1495 30.9082 88.347 30.833C88.5448 30.753 88.723 30.6477 88.8713 30.5075C89.0195 30.3672 89.1378 30.202 89.2268 30.0067C89.316 29.8115 89.3603 29.6012 89.3603 29.3657C89.3603 29.1355 89.316 28.915 89.2268 28.7197C89.1378 28.5195 89.0195 28.3542 88.8713 28.214C88.723 28.0737 88.5448 27.9635 88.347 27.8885C88.1495 27.8132 87.9323 27.7732 87.7048 27.7732C87.4778 27.7732 87.2598 27.8132 87.0573 27.8885C86.8545 27.9635 86.6768 28.0737 86.5285 28.214C86.3803 28.3542 86.2618 28.5245 86.1775 28.7197Z" fill="white"/>
<path d="M94.2035 26.3613C94.505 26.3613 94.7818 26.3963 95.044 26.4663C95.3055 26.5365 95.528 26.6415 95.7208 26.7868C95.9133 26.932 96.0618 27.1073 96.1755 27.3228C96.2893 27.538 96.3435 27.7885 96.3435 28.0738C96.3435 28.3243 96.309 28.5245 96.2348 28.6848C96.1608 28.845 96.052 28.9953 95.9088 29.1355C96.1313 29.2808 96.314 29.466 96.4573 29.6915C96.6005 29.9118 96.6695 30.1923 96.6695 30.5378C96.6695 30.8333 96.6103 31.0938 96.4918 31.319C96.373 31.5443 96.215 31.7348 96.0123 31.89C95.8148 32.045 95.5823 32.1653 95.3155 32.2455C95.0485 32.3255 94.7723 32.3655 94.4803 32.3655H91.9253V26.3613H94.2035ZM93.329 27.7383V28.755H94.3618C94.5395 28.755 94.6783 28.7048 94.7768 28.6048C94.8758 28.5045 94.925 28.3895 94.925 28.2543C94.925 28.114 94.8758 27.9938 94.7768 27.8935C94.6783 27.7935 94.5345 27.7435 94.3518 27.7435H93.329V27.7383ZM93.329 29.9518V30.9885H94.6733C94.8413 30.9885 94.9743 30.9383 95.0785 30.8433C95.177 30.748 95.2268 30.6178 95.2268 30.4628C95.2268 30.3325 95.177 30.2123 95.0785 30.107C94.9795 30.002 94.8413 29.9518 94.663 29.9518H93.329Z" fill="white"/>
<path d="M102.036 26.3613V32.3655H100.574V30.5828H100.089L98.8934 32.3655H97.2031L98.5474 30.3625C98.2016 30.1823 97.9349 29.9368 97.7419 29.6263C97.5491 29.3158 97.4556 28.9403 97.4556 28.4945C97.4556 28.159 97.5144 27.8635 97.6281 27.5983C97.7419 27.3328 97.8999 27.1125 98.0979 26.927C98.2956 26.7468 98.5326 26.6065 98.8094 26.5065C99.0864 26.4113 99.3829 26.3613 99.6941 26.3613H102.036ZM99.5901 27.8535C99.3726 27.8535 99.2046 27.9188 99.0864 28.0438C98.9629 28.174 98.9034 28.3243 98.9034 28.5045C98.9034 28.6898 98.9674 28.84 99.1009 28.9553C99.2294 29.0705 99.3976 29.1255 99.5951 29.1255H100.583V27.8535H99.5901Z" fill="white"/>
<path d="M108.11 27.9338H106.282V32.3655H104.824V27.9338H102.991V26.3613H108.11V27.9338Z" fill="white"/>
<path d="M113.986 31.454C113.808 31.7495 113.522 32 113.121 32.2102C112.721 32.4205 112.257 32.5257 111.728 32.5257C111.313 32.5257 110.922 32.4455 110.547 32.2902C110.176 32.135 109.845 31.9197 109.558 31.6392C109.272 31.359 109.044 31.0232 108.872 30.6377C108.703 30.2522 108.619 29.8215 108.619 29.3557C108.619 28.89 108.703 28.4592 108.872 28.0737C109.04 27.683 109.267 27.3525 109.558 27.0722C109.85 26.7917 110.176 26.5765 110.547 26.426C110.917 26.276 111.313 26.2007 111.728 26.2007C112.257 26.2007 112.716 26.306 113.102 26.5162C113.487 26.7265 113.769 26.977 113.937 27.2625L113.522 28.4995C113.369 28.314 113.151 28.1437 112.864 27.9985C112.583 27.8532 112.256 27.7782 111.886 27.7782C111.347 27.7782 110.922 27.9235 110.596 28.214C110.275 28.5045 110.112 28.89 110.112 29.3607C110.112 29.8365 110.275 30.217 110.596 30.5125C110.917 30.808 111.347 30.9532 111.886 30.9532C112.261 30.9532 112.593 30.878 112.874 30.7227C113.156 30.5677 113.378 30.3972 113.542 30.212L113.986 31.454Z" fill="white"/>
<path d="M119.383 26.3613V32.3655H117.92V30.5828H117.436L116.24 32.3655H114.55L115.894 30.3625C115.548 30.1823 115.282 29.9368 115.089 29.6263C114.896 29.3158 114.802 28.9403 114.802 28.4945C114.802 28.159 114.861 27.8635 114.975 27.5983C115.089 27.3328 115.247 27.1125 115.445 26.927C115.642 26.7468 115.884 26.6065 116.156 26.5065C116.433 26.4113 116.729 26.3613 117.041 26.3613H119.383ZM116.932 27.8535C116.715 27.8535 116.547 27.9188 116.428 28.0438C116.304 28.174 116.245 28.3243 116.245 28.5045C116.245 28.6898 116.309 28.84 116.443 28.9553C116.571 29.0705 116.739 29.1255 116.937 29.1255H117.925V27.8535H116.932Z" fill="white"/>
<path d="M3.86938 26.3663L6.32058 32.3705L4.56126 32.3655L3.16763 28.845L1.77893 32.3655H0.0146484L2.47081 26.3613L3.86938 26.3663Z" fill="white"/>
</g>
<defs>
<clipPath id="clip0_1_714">
<rect width="175" height="34.8445" fill="white"/>
</clipPath>
</defs>
</svg>
