<svg width="50" height="50" viewBox="0 0 50 50" fill="none" xmlns="http://www.w3.org/2000/svg">
<path d="M14.583 41.8753C14.583 40.0343 16.0754 38.542 17.9163 38.542H32.083C33.924 38.542 35.4163 40.0343 35.4163 41.8753C35.4163 42.3355 35.0432 42.7087 34.583 42.7087H15.4163C14.9561 42.7087 14.583 42.3355 14.583 41.8753Z" stroke="#22202A" stroke-width="2"/>
<path d="M18.6433 31.25C18.6433 31.25 21.483 33.3783 23.2032 33.7323C24.7359 34.0477 26.3249 33.9539 27.8101 33.4608C29.2953 32.9675 30.6245 32.0919 31.6641 30.9221C32.7034 29.7523 33.4168 28.3296 33.7322 26.7966C34.0476 25.2637 33.9538 23.675 33.4607 22.1898C33.2243 21.4783 32.9003 20.8027 32.4982 20.1776L32.2916 19.7916M32.2916 19.7916C33.6088 19.7916 34.7357 18.9766 35.1955 17.8233M32.2916 19.7916C31.1907 19.7916 30.223 19.2225 29.6663 18.3624M14.1748 31.25C14.1748 31.25 15.6914 33.4504 16.6965 34.3435C18.3366 35.8012 20.3316 36.8012 22.4807 37.2435C24.6299 37.6856 26.8576 37.5544 28.9401 36.8627C31.0224 36.171 32.8859 34.9435 34.3434 33.3033C35.8011 31.6631 36.8011 29.6683 37.2434 27.5191C37.6855 25.3698 37.5543 23.1421 36.8626 21.0598C36.4997 19.9671 35.9893 18.9346 35.3488 17.9895L35.1955 17.8233M35.1955 17.8233C35.3382 17.4656 35.4166 17.0752 35.4166 16.6666C35.4166 15.8615 35.1122 15.1275 34.612 14.5735M29.6663 18.3624L23.6178 22.996C23.0361 23.4416 22.2036 23.3312 21.7582 22.7498M29.6663 18.3624C29.3501 17.874 29.1666 17.2917 29.1666 16.6666C29.1666 14.9407 30.5657 13.5416 32.2916 13.5416C33.2124 13.5416 34.0401 13.9399 34.612 14.5735M34.612 14.5735L34.9438 14.3193C35.5945 13.8209 35.9197 13.5717 36.0884 13.2648C36.2895 12.8993 36.3461 12.4716 36.2472 12.0664C36.1643 11.7261 35.9149 11.4008 35.4166 10.7502M35.5828 10.6209L35.4166 10.7502M35.5828 10.6209C35.9847 11.1455 36.6757 11.1556 37.1626 10.7633C37.8891 10.1778 37.962 9.13354 37.408 8.41059L36.9076 7.75732C36.3536 7.03436 35.3266 6.83277 34.5722 7.38188C34.0703 7.747 33.9036 8.42896 34.2982 8.94427M35.5828 10.6209L34.9405 9.78259L34.2982 8.94427M35.4166 10.7502L34.1347 9.077M34.2982 8.94427L34.1347 9.077M34.1347 9.077C33.3805 8.09244 33.0034 7.60015 32.4891 7.44475C32.3166 7.39261 32.1368 7.36879 31.9568 7.37423C31.4199 7.39042 30.9276 7.76754 29.943 8.52182L19.5406 16.4909C19.2609 16.7052 19.121 16.8123 19.0205 16.9228C18.5523 17.4372 18.4528 18.1882 18.771 18.8068C18.8392 18.9396 18.9464 19.0795 19.1607 19.3592M19.1607 19.3592L21.7582 22.7498M19.1607 19.3592L17.0281 20.9944C16.5281 21.3775 16.2781 21.5689 16.1371 21.7975C15.9189 22.1512 15.862 22.5812 15.9806 22.9796C16.0573 23.2371 16.2489 23.4871 16.632 23.9871C17.0151 24.4871 17.2067 24.7371 17.4353 24.8781C17.789 25.0964 18.219 25.1533 18.6173 25.0346C18.8747 24.9579 19.1247 24.7662 19.6248 24.3831L21.7582 22.7498" stroke="#22202A" stroke-width="2"/>
<path d="M13.542 31.25H21.8753" stroke="#22202A" stroke-width="2" stroke-linecap="round"/>
</svg>
