<svg width="261" height="70" viewBox="0 0 261 70" fill="none" xmlns="http://www.w3.org/2000/svg">
<g clip-path="url(#clip0_1_675)">
<path d="M23.4413 53.3745C23.0784 53.6048 22.7687 53.9061 22.5322 54.259C22.3359 54.6168 22.2241 55.0129 22.205 55.4181C22.1803 55.619 22.1942 55.8232 22.2459 56.0194C22.3368 56.3245 22.4641 56.36 22.6141 56.7403C22.6921 56.9461 22.747 57.1597 22.7777 57.3771C22.836 57.6132 22.8635 57.8555 22.8595 58.0981C22.8631 58.2623 22.8324 58.4252 22.769 58.5774C22.7058 58.7294 22.6113 58.8674 22.4914 58.9826C22.3099 59.1035 22.0974 59.1726 21.8777 59.1816C21.5746 59.2187 21.2672 59.2052 20.9687 59.1419C20.1823 58.9826 20.1505 58.7352 19.5369 58.66C19.496 58.66 19.196 58.66 18.6006 58.6997C18.2692 58.6952 17.9388 58.7352 17.6188 58.819C17.3848 58.9077 17.1657 59.03 16.9688 59.1816C16.4097 59.5932 16.3779 59.8848 15.7007 60.619C15.4949 60.869 15.26 61.0945 15.0007 61.2913C14.6912 61.5323 14.3262 61.6961 13.9371 61.769C13.5223 61.8306 13.098 61.7755 12.7144 61.61C12.3752 61.4542 12.0563 61.2597 11.7644 61.0307C11.5411 60.8307 11.2957 60.6555 11.0326 60.5087C10.7279 60.3645 10.387 60.3094 10.0508 60.3494C9.7655 60.4219 9.49064 60.5287 9.23268 60.6677C8.58722 60.9597 8.5327 61.0084 8.32361 61.0307C8.02116 61.0697 7.71462 60.9971 7.46453 60.8271C7.26417 60.6606 7.12133 60.4384 7.05546 60.19C6.88274 59.7036 6.98275 59.5223 6.89638 58.7881C6.89369 58.3806 6.7808 57.981 6.56912 57.6294C6.40923 57.4123 6.19901 57.2352 5.95548 57.1119C5.50096 56.8906 5.34643 57.0455 4.9737 56.8332C4.69823 56.6706 4.49547 56.4136 4.40554 56.1123C4.3419 55.8513 4.43736 55.7232 4.48736 55.3913C4.56472 54.9429 4.5079 54.4826 4.32372 54.0645C4.16011 53.7726 3.71011 53.5471 2.81014 53.1048C2.44212 52.9632 2.08772 52.79 1.75108 52.5874C1.27508 52.1732 0.910011 51.6526 0.687477 51.0703C0.502318 50.7484 0.379093 50.3961 0.32385 50.031C0.28438 49.5755 0.36904 49.1177 0.569297 48.7042C0.713619 48.261 0.990582 47.8697 1.36473 47.5806C1.64654 47.3861 1.84198 47.3774 2.06016 47.1032C2.21766 46.9245 2.30468 46.6971 2.30561 46.4619C2.27834 46.0726 1.91471 45.8116 1.65108 45.6258C1.11473 45.241 0.910195 45.3871 0.546572 45.0642C0.240829 44.7774 0.0478599 44.3958 0.00113292 43.9852C-0.0135597 43.5323 0.114955 43.0861 0.369302 42.7068C0.614752 42.2336 0.742018 42.2645 0.855654 41.8665C0.94355 41.5406 0.971253 41.2023 0.937468 40.8668C0.937468 40.4245 0.882923 40.3848 0.855654 39.9823C0.761006 39.4881 0.803366 38.9781 0.978375 38.5052C1.18604 38.1465 1.48102 37.8426 1.83744 37.6206C2.21925 37.3506 2.40561 37.3419 2.53287 37.1032C2.66014 36.8642 2.53287 36.7448 2.53287 36.1832C2.49286 35.7374 2.53441 35.2881 2.6556 34.8565C2.75451 34.5706 2.89371 34.2997 3.06922 34.0513C3.30737 33.6061 3.65965 33.2284 4.09192 32.9545C4.51701 32.7471 4.98084 32.6252 5.45551 32.5961C5.9873 32.521 6.23276 32.5655 6.47819 32.3574C6.66974 32.1774 6.78629 31.9348 6.80548 31.6764C6.78655 31.2811 6.61053 30.9084 6.31458 30.637C5.72368 29.9337 5.42825 29.9205 4.80553 29.2792C4.42217 28.9282 4.1133 28.5075 3.89646 28.0408C3.66556 27.4799 3.58122 26.8721 3.65103 26.2717C3.70103 25.71 3.82375 25.7144 4.0601 24.675C4.19645 24.0735 4.16011 24.0647 4.34646 23.1536C4.59644 21.9373 4.71916 21.6941 4.91917 21.4774C5.17581 21.2271 5.48626 21.0352 5.82821 20.9156C6.33374 20.6941 6.8696 20.5452 7.41909 20.4734C8.09255 20.3587 8.77719 20.3186 9.45992 20.354C10.719 20.4203 10.9644 20.6857 11.6644 20.4734C12.0879 20.3549 12.4609 20.1067 12.728 19.7657C13.0326 19.3235 12.9235 19.0315 13.0553 18.2885C13.1326 17.8462 13.1871 17.8462 13.9098 16.0506C14.4598 14.6795 14.3643 14.7945 14.6052 14.2815C14.933 13.5826 15.3002 12.9019 15.7052 12.2425C16.0786 11.5652 16.5366 10.9353 17.0688 10.3673C17.3334 10.0669 17.6686 9.83326 18.046 9.68616C18.3557 9.55881 18.6955 9.51748 19.0278 9.56674C19.4824 9.65077 19.5596 9.89403 20.3914 10.4513C20.7359 10.7478 21.1518 10.9547 21.6005 11.0528C21.9328 11.0885 22.2691 11.0476 22.5822 10.9334C23.2369 10.7117 23.8508 10.3891 24.4004 9.97806C25.1867 9.46945 25.2413 9.381 25.5458 9.29697C26.0286 9.1701 26.5391 9.18394 27.014 9.33677C28.0594 9.65961 28.0503 10.3452 29.1366 10.6945C29.3548 10.7653 29.2093 10.6945 30.4002 10.8936C31.482 11.0794 31.6183 11.1457 31.9547 11.0926C32.4803 11.0127 32.9616 10.7598 33.3182 10.3761C33.5637 10.0975 33.5727 9.93384 33.9319 8.69545C34.0821 8.08116 34.286 7.48045 34.5408 6.89981C34.7211 6.3999 35.0367 5.95671 35.4547 5.61719C35.7182 5.44468 35.8184 5.47123 37.0455 5.0599C37.3714 4.97413 37.687 4.854 37.9865 4.70165C38.5182 4.25939 38.2226 3.61806 38.5954 2.70255C38.8677 2.09241 39.3063 1.5663 39.8635 1.18111C40.5816 0.641526 41.2545 0.495574 42.3133 0.265588C43.2821 0.0330997 44.2825 -0.0475242 45.277 0.0267569C46.1854 0.109487 47.0782 0.310301 47.9316 0.623836C48.5815 0.784036 49.1969 1.05507 49.7496 1.42436C50.1882 1.75777 50.5781 2.1476 50.9086 2.58314C51.2041 2.98119 51.1586 3.02542 51.3631 3.22002C51.4632 3.3129 51.886 3.66229 53.2039 3.7021C54.3723 3.7021 54.5086 3.43232 55.4447 3.54287C55.9309 3.58548 56.4035 3.72074 56.8357 3.94094C57.387 4.23048 57.8616 4.64081 58.2221 5.13952C58.452 5.45726 58.6572 5.79139 58.8358 6.13906C58.9614 6.43165 59.1136 6.71287 59.2903 6.97942C59.5765 7.35094 59.7448 7.30226 60.1447 7.73571C60.4354 7.98703 60.6599 8.30248 60.7991 8.65565C60.8673 9.03826 60.8812 9.42816 60.8401 9.81442C60.8062 10.1335 60.8062 10.4551 60.8401 10.7742C60.9267 11.0479 61.085 11.295 61.2991 11.4912C61.5136 11.6874 61.7769 11.8259 62.0628 11.8931C62.452 11.9694 62.8564 11.9132 63.2082 11.7339C63.7764 11.4685 63.7628 11.1413 64.572 10.4071C64.865 10.0635 65.2461 9.80119 65.6764 9.64636C65.8537 9.60213 66.0081 9.59329 67.2262 9.76577C67.6284 9.85339 68.0373 9.90665 68.4492 9.925C69.0991 9.89403 69.1763 9.66403 70.0446 9.52694C70.4303 9.41736 70.8405 9.41736 71.2262 9.52694C71.6361 9.70632 71.9688 10.0191 72.1671 10.4115C72.5309 11.0484 72.2808 11.2961 72.6216 11.7384C72.9624 12.1806 73.3762 12.2204 74.0533 12.3796C74.9626 12.5964 75.1715 12.3796 75.6034 12.6583C76.0466 12.9836 76.3522 13.4556 76.4623 13.9851C76.6487 14.6972 76.4032 15.0643 76.7033 15.3429C77.0034 15.6215 77.1578 15.3872 77.685 15.5818C78.1869 15.7907 78.6027 16.1565 78.8669 16.6211C79.1305 17.0634 78.9625 17.1253 79.2351 17.6207C79.5895 18.2664 79.9396 18.2841 80.0533 18.7795C80.1125 19.091 80.0695 19.4128 79.9306 19.6994C79.7306 20.1417 79.4076 20.3009 79.2351 20.4999C78.3849 21.4862 80.8667 24.2814 80.785 27.0545C80.7727 27.5161 80.6913 27.9734 80.544 28.4123C80.3305 29.0671 79.9506 29.6589 79.4396 30.1328C79.0123 30.5131 78.9079 30.4158 78.0761 31.0527C77.3988 31.5746 77.2715 31.7957 77.2169 32.0081C77.1565 32.2056 77.1552 32.4158 77.213 32.6139C77.2712 32.8119 77.3858 32.99 77.5441 33.1271C77.7215 33.2419 77.9305 33.2465 78.4851 33.1271C79.7442 32.8571 80.0669 32.5255 80.9714 32.4503C81.3138 32.3923 81.6655 32.4197 81.994 32.53C82.5351 32.7823 82.9573 33.2248 83.176 33.7684C83.4305 34.3081 83.2803 34.4142 83.5439 34.9271C83.7797 35.3448 84.0998 35.7119 84.4848 36.0061C85.3031 36.7184 85.5802 36.59 85.994 37.1252C86.3057 37.5187 86.4782 37.9997 86.4853 38.4965C86.4927 38.9929 86.3348 39.4787 86.0347 39.8806C85.5166 40.5529 84.9623 40.4113 84.5666 41.0794C84.3912 41.3839 84.3062 41.73 84.3214 42.0787C84.3214 42.521 84.5123 42.9632 85.3396 43.9584C86.5577 45.3958 87.0438 45.4842 87.3804 46.3955C87.5606 46.8145 87.6307 47.2703 87.5849 47.7223C87.5484 48.0274 87.4847 48.0319 87.2983 48.8413C87.2092 49.1681 87.1546 49.5032 87.1349 49.8406C87.1349 50.1594 87.1756 50.1768 87.1756 50.6016C87.2195 50.9132 87.1772 51.231 87.0529 51.5216C86.9036 51.7361 86.6914 51.9026 86.444 51.999C85.9168 52.2823 85.7169 52.1939 85.2575 52.4813C85.0543 52.5787 84.8851 52.7326 84.7714 52.9236C84.6121 53.2287 84.7714 53.3658 84.7303 53.8832C84.6276 54.2361 84.5046 54.5832 84.3621 54.9226C84.135 55.5197 84.103 55.5948 83.9939 55.6832C83.7393 55.8823 83.5168 55.7761 83.0849 55.8823C82.6621 56.0274 82.2838 56.2739 81.985 56.5987C81.5732 56.96 81.203 57.3632 80.8806 57.8019C80.294 58.589 80.3486 58.8013 79.9713 59.0003C79.594 59.1994 79.4125 59.1197 78.5032 59.08C77.5942 59.0403 78.5032 59.1155 76.7443 59.0358C74.4716 58.9429 74.4716 58.8765 74.176 59.0003C73.6353 59.2348 73.3126 59.6506 72.5806 59.6771C72.4175 59.6829 72.2544 59.6694 72.0945 59.6374C71.5385 59.4819 71.0563 59.1426 70.7307 58.6774C70.1718 57.9965 69.7535 58.2087 66.0763 56.6784C65.1356 56.2894 64.6537 56.0858 64.1175 55.7939C62.8219 55.0994 62.7266 54.8077 61.9129 54.4671C61.0992 54.1265 60.3311 54.1132 58.8539 54.1045C57.1267 54.1045 56.8676 54.3519 55.4677 54.1839C54.5587 54.0777 53.7905 53.9452 53.7905 53.9452C53.2521 53.8326 52.7071 53.7526 52.1586 53.7065C51.7232 53.6336 51.2765 53.6606 50.854 53.7858C50.3982 53.9794 50.0232 54.3177 49.7906 54.7458C49.5541 55.1571 49.5496 55.4577 49.4634 56.4219C49.3041 58.2929 49.2405 58.1026 49.2179 58.9826C49.1917 59.6487 49.2188 60.3155 49.2996 60.9774C49.4123 61.7532 49.6042 62.5161 49.8723 63.2552C50.1682 64.0861 50.5096 64.901 50.895 65.6965C51.177 66.239 51.3821 66.8165 51.5042 67.4126C51.593 67.74 51.593 68.0845 51.5042 68.4123C51.3828 68.7532 51.1731 69.0581 50.895 69.2968C49.9495 70.0971 46.9361 69.8497 45.7906 69.7745C42.8589 69.5887 40.7909 69.4603 38.3227 69.7345C37.2681 69.8539 36.05 70.0574 35.2592 69.3365C35.0386 69.1142 34.8668 68.8506 34.7543 68.5616C34.6419 68.2726 34.5909 67.9645 34.6045 67.6558C34.6319 67.1429 34.8454 66.9084 35.2182 66.2184C35.7257 65.231 36.122 64.1929 36.4001 63.1226C36.6321 62.4532 36.7429 61.75 36.7273 61.0439C36.6456 59.8097 36.1091 59.5577 36.0774 58.2884C36.05 57.2977 36.3681 57.2181 36.2409 56.4884C36.0364 55.3516 35.0819 54.6219 34.6455 54.2768C33.9184 53.7197 33.5501 53.7197 31.0547 52.919C28.7821 52.1848 28.4366 51.9858 27.4185 51.9197C26.5563 51.7994 25.6768 51.9255 24.8867 52.2823C24.3816 52.6161 23.8988 52.981 23.4413 53.3745Z" fill="white"/>
<path d="M46.4588 30.2919C47.2951 29.6595 48.113 29.027 48.8269 28.399C49.2642 28.0594 49.6196 27.6301 49.867 27.1415C50.1144 26.653 50.2482 26.1174 50.2585 25.5728C50.2572 25.4247 50.2452 25.2769 50.2223 25.1306C49.4493 27.1783 47.0406 28.8368 46.9178 28.912C46.4905 29.2482 46.0405 29.5887 45.5905 29.9249C45.2449 29.7833 44.8905 29.6418 44.5178 29.5091C43.228 29.0845 41.9866 28.5316 40.8134 27.8594H46.9769C47.2941 27.6037 47.5978 27.3321 47.8859 27.0456H39.7045C39.7633 27.3211 39.8392 27.5928 39.9316 27.8594C40.4952 29.4118 41.8726 30.8581 44.0859 32.2115C45.1881 32.8103 46.2211 33.5219 47.1678 34.3345H43.0768C42.736 34.6042 42.4088 34.8784 42.0997 35.148H47.8995C48.3569 35.7271 48.636 36.4203 48.7041 37.1474H40.1951C40.0129 37.4013 39.8605 37.6742 39.7406 37.9609H48.6767C48.5336 38.728 48.1417 39.4303 47.5587 39.9645H39.927C40.127 40.2616 40.3618 40.5348 40.627 40.7784H46.536C43.4224 42.8306 37.7909 43.6177 35.1454 43.6664L33.4453 48.6377C37.1407 48.4032 52.5358 45.9264 52.5358 37.3022C52.5358 34.4935 50.4949 32.1318 46.4588 30.2919Z" fill="#21108E"/>
<path d="M42.768 33.0561C42.5225 32.8926 42.286 32.7336 42.0589 32.5655C39.8223 34.3345 37.9679 36.1436 37.609 38.0097C37.4795 38.6839 37.5208 39.3784 37.7292 40.0332C37.9375 40.6884 38.3064 41.2839 38.8042 41.7694C39.1272 41.7161 39.4544 41.6542 39.7771 41.5923C38.6543 40.5087 38.1817 39.5223 38.4133 38.1513C38.7315 36.4884 40.5769 34.7636 42.768 33.0561Z" fill="#21108E"/>
<path d="M38.7955 23.3084C39.2729 22.3172 39.9864 21.4514 40.8773 20.783C43.6317 18.293 48.5817 16.8246 52.3907 16.745L54.1725 11.2695C49.8679 11.5216 36.6458 14.8476 36.6458 23.6136C36.6196 25.3538 37.2912 27.0354 38.5183 28.3018C37.9533 26.6637 38.0525 24.8777 38.7955 23.3084Z" fill="#21108E"/>
<path d="M46.4588 30.2919C47.2951 29.6595 48.113 29.027 48.8269 28.399C49.2642 28.0594 49.6196 27.6301 49.867 27.1415C50.1144 26.653 50.2482 26.1174 50.2585 25.5728C50.2572 25.4247 50.2452 25.2769 50.2223 25.1306C49.4493 27.1783 47.0406 28.8368 46.9178 28.912C46.4905 29.2482 46.0405 29.5887 45.5905 29.9249C45.2449 29.7833 44.8905 29.6418 44.5178 29.5091C43.228 29.0845 41.9866 28.5316 40.8134 27.8594H46.9769C47.2941 27.6037 47.5978 27.3321 47.8859 27.0456H39.7045C39.7633 27.3211 39.8392 27.5928 39.9316 27.8594C40.4952 29.4118 41.8726 30.8581 44.0859 32.2115C45.1881 32.8103 46.2211 33.5219 47.1678 34.3345H43.0768C42.736 34.6042 42.4088 34.8784 42.0997 35.148H47.8995C48.3569 35.7271 48.636 36.4203 48.7041 37.1474H40.1951C40.0129 37.4013 39.8605 37.6742 39.7406 37.9609H48.6767C48.5336 38.728 48.1417 39.4303 47.5587 39.9645H39.927C40.127 40.2616 40.3618 40.5348 40.627 40.7784H46.536C43.4224 42.8306 37.7909 43.6177 35.1454 43.6664L33.4453 48.6377C37.1407 48.4032 52.5358 45.9264 52.5358 37.3022C52.5358 34.4935 50.4949 32.1318 46.4588 30.2919Z" fill="#21108E"/>
<path d="M39.7632 25.0201H49.3494C49.3856 24.9375 49.4176 24.8534 49.4447 24.768C49.4638 24.7312 49.4793 24.6927 49.4903 24.653C49.5307 24.5313 49.5626 24.4072 49.5859 24.2814C49.5836 24.2727 49.5836 24.2636 49.5859 24.2549C49.6343 23.9604 49.6205 23.6594 49.5449 23.3703C48.6359 21.8975 47.0857 20.5795 45.9086 19.5844C45.6221 19.6994 45.3359 19.8188 45.0539 19.9427L45.2813 20.1329C45.7358 20.4955 46.1903 20.9068 46.7039 21.3535H42.4904C42.1212 21.6005 41.7704 21.8724 41.4406 22.1673H47.5451C48.151 22.7622 48.6598 23.4438 49.0539 24.1886L39.9996 24.2062C39.9056 24.4731 39.8268 24.7448 39.7632 25.0201Z" fill="#21108E"/>
<path d="M106.197 27.7257C103.931 27.7257 102.244 26.9258 101.136 25.3261C100.045 23.7264 99.5 21.4545 99.5 18.5104C99.5 15.5662 100.045 13.2943 101.136 11.6947C102.244 10.0949 103.931 9.2951 106.197 9.2951C107.066 9.2951 107.816 9.41423 108.447 9.65246C109.094 9.87372 109.648 10.1885 110.108 10.597C110.568 10.9884 110.952 11.4564 111.259 12.001C111.582 12.5285 111.846 13.0986 112.051 13.7113L109.469 14.5792C109.333 14.1708 109.179 13.7878 109.009 13.4305C108.838 13.0731 108.626 12.7668 108.37 12.5115C108.114 12.2562 107.808 12.052 107.45 11.8988C107.109 11.7457 106.683 11.6691 106.172 11.6691C104.911 11.6691 103.99 12.1541 103.411 13.1242C102.832 14.0772 102.542 15.3706 102.542 17.0043V20.0165C102.542 21.6502 102.832 22.9521 103.411 23.9221C103.99 24.8751 104.911 25.3516 106.172 25.3516C106.683 25.3516 107.109 25.275 107.45 25.1219C107.808 24.9687 108.114 24.7645 108.37 24.5092C108.626 24.254 108.838 23.9477 109.009 23.5903C109.179 23.2329 109.333 22.85 109.469 22.4416L112.051 23.3095C111.846 23.9221 111.582 24.5007 111.259 25.0453C110.952 25.5729 110.568 26.0409 110.108 26.4493C109.648 26.8407 109.094 27.1556 108.447 27.3938C107.816 27.615 107.066 27.7257 106.197 27.7257Z" fill="white"/>
<path d="M115.032 27.4193V9.60144H126.202V12.001H117.895V17.183H125.896V19.5825H117.895V25.0198H126.202V27.4193H115.032Z" fill="white"/>
<path d="M138.155 20.7057H138.028C137.585 20.8929 137.082 21.0376 136.519 21.1397C135.957 21.2418 135.318 21.2928 134.602 21.2928C133.58 21.2928 132.711 21.1737 131.995 20.9355C131.279 20.6802 130.691 20.2973 130.231 19.7867C129.771 19.2592 129.439 18.5955 129.234 17.7956C129.03 16.9958 128.928 16.0428 128.928 14.9366V9.60144H131.791V14.9621C131.791 15.7109 131.842 16.3406 131.944 16.8511C132.063 17.3446 132.251 17.7446 132.506 18.0509C132.779 18.3572 133.128 18.5785 133.554 18.7146C133.98 18.8337 134.509 18.8933 135.139 18.8933C136.23 18.8933 137.235 18.7146 138.155 18.3572V9.60144H141.018V27.4193H138.155V20.7057Z" fill="white"/>
<path d="M144.664 27.4193V9.60144H155.834V12.001H147.527V17.183H155.527V19.5825H147.527V25.0198H155.834V27.4193H144.664Z" fill="white"/>
<path d="M167.915 19.5825H161.985V27.4193H159.122V9.60144H161.985V17.183H167.915V9.60144H170.778V27.4193H167.915V19.5825Z" fill="white"/>
<path d="M179.765 27.7257C178.641 27.7257 177.661 27.5214 176.826 27.113C176.008 26.6876 175.326 26.0834 174.781 25.3006C174.253 24.5177 173.861 23.5562 173.605 22.416C173.35 21.2758 173.222 19.9739 173.222 18.5104C173.222 17.0638 173.35 15.7705 173.605 14.6303C173.861 13.473 174.253 12.503 174.781 11.7202C175.326 10.9373 176.008 10.3417 176.826 9.93327C177.661 9.50781 178.641 9.2951 179.765 9.2951C180.89 9.2951 181.861 9.50781 182.68 9.93327C183.515 10.3417 184.196 10.9373 184.724 11.7202C185.27 12.503 185.67 13.473 185.926 14.6303C186.182 15.7705 186.309 17.0638 186.309 18.5104C186.309 19.9739 186.182 21.2758 185.926 22.416C185.67 23.5562 185.27 24.5177 184.724 25.3006C184.196 26.0834 183.515 26.6876 182.68 27.113C181.861 27.5214 180.89 27.7257 179.765 27.7257ZM179.765 25.3516C181.044 25.3516 181.947 24.8751 182.475 23.9221C183.003 22.9521 183.268 21.6417 183.268 19.9909V17.0043C183.268 15.3706 183.003 14.0772 182.475 13.1242C181.947 12.1541 181.044 11.6691 179.765 11.6691C178.488 11.6691 177.584 12.1541 177.056 13.1242C176.528 14.0772 176.264 15.3706 176.264 17.0043V20.0165C176.264 21.6502 176.528 22.9521 177.056 23.9221C177.584 24.8751 178.488 25.3516 179.765 25.3516Z" fill="white"/>
<path d="M189.034 9.60144H195.194C196.813 9.60144 198.066 10.0184 198.952 10.8522C199.855 11.6861 200.307 12.8263 200.307 14.2729C200.307 15.311 200.051 16.1364 199.54 16.749C199.029 17.3617 198.339 17.7956 197.47 18.0509V18.1785C198.509 18.4168 199.344 18.8763 199.975 19.557C200.605 20.2207 200.921 21.1652 200.921 22.3905C200.921 23.1223 200.801 23.7945 200.563 24.4072C200.324 25.0198 199.983 25.5559 199.54 26.0153C199.097 26.4578 198.56 26.8067 197.93 27.062C197.316 27.3002 196.635 27.4193 195.885 27.4193H189.034V9.60144ZM195.016 25.224C195.97 25.224 196.703 25.0283 197.214 24.6369C197.725 24.2455 197.981 23.6158 197.981 22.7479V21.8289C197.981 20.961 197.725 20.3313 197.214 19.9399C196.703 19.5485 195.97 19.3528 195.016 19.3528H191.846V25.224H195.016ZM194.607 17.2596C195.51 17.2596 196.192 17.0894 196.652 16.749C197.129 16.3916 197.367 15.8045 197.367 14.9876V14.0687C197.367 13.2518 197.129 12.6732 196.652 12.3328C196.192 11.9754 195.51 11.7968 194.607 11.7968H191.846V17.2596H194.607Z" fill="white"/>
<path d="M209.909 27.7257C207.642 27.7257 205.955 26.9258 204.847 25.3261C203.757 23.7264 203.211 21.4545 203.211 18.5104C203.211 15.5662 203.757 13.2943 204.847 11.6947C205.955 10.0949 207.642 9.2951 209.909 9.2951C210.778 9.2951 211.528 9.41423 212.158 9.65246C212.805 9.87372 213.359 10.1885 213.819 10.597C214.28 10.9884 214.663 11.4564 214.97 12.001C215.294 12.5285 215.558 13.0986 215.762 13.7113L213.18 14.5792C213.044 14.1708 212.891 13.7878 212.72 13.4305C212.55 13.0731 212.337 12.7668 212.081 12.5115C211.826 12.2562 211.519 12.052 211.161 11.8988C210.82 11.7457 210.394 11.6691 209.883 11.6691C208.622 11.6691 207.702 12.1541 207.122 13.1242C206.543 14.0772 206.253 15.3706 206.253 17.0043V20.0165C206.253 21.6502 206.543 22.9521 207.122 23.9221C207.702 24.8751 208.622 25.3516 209.883 25.3516C210.394 25.3516 210.82 25.275 211.161 25.1219C211.519 24.9687 211.826 24.7645 212.081 24.5092C212.337 24.254 212.55 23.9477 212.72 23.5903C212.891 23.2329 213.044 22.85 213.18 22.4416L215.762 23.3095C215.558 23.9221 215.294 24.5007 214.97 25.0453C214.663 25.5729 214.28 26.0409 213.819 26.4493C213.359 26.8407 212.805 27.1556 212.158 27.3938C211.528 27.615 210.778 27.7257 209.909 27.7257Z" fill="white"/>
<path d="M218.385 9.60144H221.248V17.2085H224.009L227.408 9.60144H230.348L227.331 16.3406C227.042 16.9873 226.752 17.4468 226.463 17.7191C226.19 17.9913 225.866 18.1615 225.491 18.2296V18.3828C225.917 18.4678 226.258 18.6465 226.514 18.9188C226.786 19.1911 227.068 19.6761 227.357 20.3739L229.351 25.0198H230.91V27.4193H229.172C228.541 27.4193 228.013 27.2577 227.587 26.9343C227.161 26.611 226.778 26.0664 226.437 25.3006L223.983 19.6081H221.248V27.4193H218.385V9.60144Z" fill="white"/>
<path d="M233.125 9.60144H235.936V17.5659L235.578 22.5947H235.757L242.224 9.60144H244.934V27.4193H242.122V19.4549L242.48 14.4261H242.301L235.834 27.4193H233.125V9.60144Z" fill="white"/>
<path d="M247.94 9.60145H250.752V17.5659L250.394 22.5947H250.573L257.04 9.60145H259.75V27.4194H256.938V19.4549L257.296 14.4261H257.117L250.65 27.4194H247.94V9.60145ZM253.845 8.17194C252.857 8.17194 252.056 7.9592 251.442 7.53375C250.829 7.09129 250.326 6.4361 249.934 5.56816L249.295 4.13865L251.621 3.32178L252.542 6.02765C252.695 6.09571 252.899 6.14678 253.155 6.18081C253.41 6.19784 253.64 6.20633 253.845 6.20633C254.05 6.20633 254.28 6.19784 254.535 6.18081C254.791 6.14678 254.996 6.09571 255.149 6.02765L256.069 3.32178L258.395 4.13865L257.756 5.56816C257.364 6.4361 256.861 7.09129 256.248 7.53375C255.634 7.9592 254.833 8.17194 253.845 8.17194Z" fill="white"/>
<path d="M101.238 47.9229H104.075L104.791 46.1106L98.8354 32.5045H101.903L105.047 40.0861L106.095 43.1239H106.146L107.117 40.0352L109.801 32.5045H112.639L106.964 47.5658C106.759 48.1103 106.538 48.5613 106.299 48.9187C106.078 49.2761 105.822 49.5568 105.533 49.761C105.243 49.9652 104.91 50.11 104.535 50.1948C104.161 50.28 103.718 50.3226 103.206 50.3226H101.238V47.9229Z" fill="white"/>
<path d="M123.467 42.4858H117.537V50.3226H114.674V32.5045H117.537V40.0861H123.467V32.5045H126.33V50.3226H123.467V42.4858Z" fill="white"/>
<path d="M129.413 32.5045H132.225V40.469L131.867 45.4981H132.046L138.513 32.5045H141.223V50.3226H138.411V42.3581L138.769 37.3294H138.59L132.123 50.3226H129.413V32.5045Z" fill="white"/>
<path d="M144.587 32.5045H150.747C152.366 32.5045 153.619 32.9216 154.505 33.7555C155.408 34.5894 155.86 35.7297 155.86 37.1761C155.86 38.2142 155.604 39.0397 155.093 39.6523C154.581 40.2648 153.892 40.6987 153.022 40.9542V41.0816C154.062 41.32 154.897 41.7794 155.527 42.4603C156.158 43.1239 156.473 44.0684 156.473 45.2939C156.473 46.0255 156.354 46.6977 156.115 47.3103C155.877 47.9229 155.536 48.459 155.093 48.9187C154.65 49.361 154.113 49.71 153.482 49.9652C152.869 50.2035 152.187 50.3226 151.438 50.3226H144.587V32.5045ZM150.568 48.1271C151.522 48.1271 152.255 47.9316 152.767 47.54C153.278 47.1487 153.534 46.519 153.534 45.651V44.7323C153.534 43.8642 153.278 43.2345 152.767 42.8432C152.255 42.4516 151.522 42.2561 150.568 42.2561H147.399V48.1271H150.568ZM150.159 40.1629C151.062 40.1629 151.744 39.9926 152.204 39.6523C152.681 39.2948 152.92 38.7077 152.92 37.891V36.9719C152.92 36.1552 152.681 35.5765 152.204 35.2361C151.744 34.8787 151.062 34.7 150.159 34.7H147.399V40.1629H150.159Z" fill="white"/>
<path d="M159.479 50.3226V32.5045H170.65V34.9042H162.342V40.0861H170.343V42.4858H162.342V47.9229H170.65V50.3226H159.479Z" fill="white"/>
<path d="M174.244 50.3226V32.5045H180.916C182.62 32.5045 183.915 32.9813 184.801 33.9342C185.705 34.8871 186.156 36.1977 186.156 37.8655C186.156 39.5332 185.705 40.8435 184.801 41.7965C183.915 42.7497 182.62 43.2261 180.916 43.2261H177.107V50.3226H174.244ZM177.107 40.8519H180.481C182.254 40.8519 183.14 40.0352 183.14 38.4013V37.3039C183.14 35.6871 182.254 34.8787 180.481 34.8787H177.107V40.8519Z" fill="white"/>
<path d="M195.093 50.629C192.826 50.629 191.139 49.829 190.031 48.2294C188.941 46.6297 188.396 44.3578 188.396 41.4136C188.396 38.4694 188.941 36.1977 190.031 34.5977C191.139 32.9981 192.826 32.1984 195.093 32.1984C195.962 32.1984 196.712 32.3174 197.342 32.5558C197.99 32.7771 198.544 33.0919 199.003 33.5003C199.464 33.8916 199.847 34.3597 200.154 34.9042C200.478 35.4319 200.742 36.0019 200.946 36.6145L198.365 37.4826C198.228 37.0739 198.075 36.691 197.905 36.3339C197.734 35.9765 197.521 35.67 197.265 35.4148C197.01 35.1594 196.703 34.9552 196.345 34.8023C196.004 34.649 195.578 34.5723 195.067 34.5723C193.806 34.5723 192.886 35.0574 192.306 36.0274C191.727 36.9803 191.437 38.2739 191.437 39.9074V42.9197C191.437 44.5536 191.727 45.8555 192.306 46.8255C192.886 47.7784 193.806 48.2548 195.067 48.2548C195.578 48.2548 196.004 48.1784 196.345 48.0252C196.703 47.8719 197.01 47.6678 197.265 47.4126C197.521 47.1571 197.734 46.851 197.905 46.4936C198.075 46.1361 198.228 45.7532 198.365 45.3448L200.946 46.2126C200.742 46.8255 200.478 47.4039 200.154 47.9487C199.847 48.4761 199.464 48.9442 199.003 49.3526C198.544 49.7439 197.99 50.0587 197.342 50.2971C196.712 50.5184 195.962 50.629 195.093 50.629Z" fill="white"/>
<path d="M203.493 32.5045H206.305V40.469L205.947 45.4981H206.126L212.593 32.5045H215.302V50.3226H212.49V42.3581L212.848 37.3294H212.669L206.202 50.3226H203.493V32.5045Z" fill="white"/>
<path d="M225.644 34.9042V50.3226H222.782V34.9042H217.184V32.5045H231.243V34.9042H225.644Z" fill="white"/>
<path d="M233.559 50.3226V32.5045H244.729V34.9042H236.422V40.0861H244.422V42.4858H236.422V47.9229H244.729V50.3226H233.559Z" fill="white"/>
<path d="M255.276 34.9042V50.3226H252.413V34.9042H246.815V32.5045H260.874V34.9042H255.276Z" fill="white"/>
<path d="M148.186 61.2368H145.728V64.4861H144.541V57.0981H145.728V60.2416H148.186V57.0981H149.374V64.4861H148.186V61.2368Z" fill="white"/>
<path d="M154.817 64.4861L154.256 62.5174H151.903L151.341 64.4861H150.133L152.295 57.0981H153.916L156.079 64.4861H154.817ZM153.121 58.2942H153.037L152.125 61.5329H154.033L153.121 58.2942Z" fill="white"/>
<path d="M157.399 63.491H158.576L158.872 62.7397L156.403 57.0981H157.675L158.978 60.2416L159.413 61.5013H159.434L159.837 60.2207L160.95 57.0981H162.126L159.773 63.3429C159.689 63.5687 159.597 63.7558 159.498 63.9039C159.406 64.052 159.3 64.1684 159.18 64.2532C159.06 64.3378 158.922 64.3978 158.766 64.4332C158.611 64.4684 158.427 64.4861 158.215 64.4861H157.399V63.491Z" fill="white"/>
<path d="M162.97 57.0981H164.157V60.2523H165.302L166.711 57.0981H167.93L166.68 59.8923C166.56 60.1607 166.439 60.351 166.319 60.4639C166.206 60.5768 166.072 60.6474 165.916 60.6758V60.7391C166.093 60.7745 166.235 60.8484 166.341 60.9613C166.454 61.0742 166.57 61.2755 166.69 61.5649L167.517 63.491H168.163V64.4861H167.443C167.181 64.4861 166.962 64.4191 166.786 64.2849C166.609 64.151 166.45 63.9252 166.309 63.6074L165.291 61.2471H164.157V64.4861H162.97V57.0981Z" fill="white"/>
<path d="M177.673 64.6129C177.207 64.6129 176.801 64.5284 176.454 64.359C176.115 64.1826 175.832 63.9322 175.606 63.6074C175.387 63.2829 175.225 62.8842 175.119 62.4116C175.013 61.9387 174.96 61.399 174.96 60.7919C174.96 60.1922 175.013 59.6561 175.119 59.1832C175.225 58.7035 175.387 58.3013 175.606 57.9768C175.832 57.6519 176.115 57.4051 176.454 57.2358C176.801 57.0593 177.207 56.9709 177.673 56.9709C178.139 56.9709 178.542 57.0593 178.881 57.2358C179.228 57.4051 179.51 57.6519 179.729 57.9768C179.955 58.3013 180.121 58.7035 180.227 59.1832C180.333 59.6561 180.386 60.1922 180.386 60.7919C180.386 61.399 180.333 61.9387 180.227 62.4116C180.121 62.8842 179.955 63.2829 179.729 63.6074C179.51 63.9322 179.228 64.1826 178.881 64.359C178.542 64.5284 178.139 64.6129 177.673 64.6129ZM177.673 63.6287C178.203 63.6287 178.577 63.4313 178.797 63.0361C179.016 62.6339 179.125 62.0903 179.125 61.4061V60.1677C179.125 59.4903 179.016 58.9538 178.797 58.5587C178.577 58.1564 178.203 57.9555 177.673 57.9555C177.143 57.9555 176.769 58.1564 176.55 58.5587C176.331 58.9538 176.221 59.4903 176.221 60.1677V61.4164C176.221 62.0939 176.331 62.6339 176.55 63.0361C176.769 63.4313 177.143 63.6287 177.673 63.6287Z" fill="white"/>
<path d="M189.419 61.2155H188.804L187.935 64.4861H186.801L187.522 61.7765C187.613 61.4236 187.723 61.1732 187.85 61.0249C187.978 60.8768 188.144 60.7816 188.348 60.7391V60.6758C188.165 60.6332 188.013 60.5487 187.893 60.4216C187.772 60.2874 187.674 60.0652 187.596 59.7549L186.939 57.0981H188.02L188.804 60.2629H189.419V57.0981H190.5V60.2629H191.115L191.899 57.0981H192.98L192.323 59.7549C192.245 60.0652 192.143 60.2874 192.016 60.4216C191.895 60.5487 191.747 60.6332 191.57 60.6758V60.7391C191.775 60.7816 191.941 60.8768 192.069 61.0249C192.196 61.1732 192.305 61.4236 192.397 61.7765L193.118 64.4861H191.984L191.115 61.2155H190.5V64.4861H189.419V61.2155Z" fill="white"/>
<path d="M193.654 57.0981H194.82V60.4003L194.672 62.4855H194.746L197.427 57.0981H198.551V64.4861H197.385V61.1839L197.533 59.0987H197.459L194.778 64.4861H193.654V57.0981Z" fill="white"/>
<path d="M202.045 64.6129C201.437 64.6129 200.925 64.5 200.508 64.2745C200.091 64.0487 199.748 63.7629 199.479 63.4171L200.243 62.6761C200.744 63.3042 201.352 63.618 202.066 63.618C202.49 63.618 202.822 63.5158 203.062 63.3113C203.309 63.1064 203.433 62.8242 203.433 62.4645V62.2845C203.433 61.9529 203.327 61.6951 203.115 61.5119C202.91 61.3213 202.585 61.2261 202.14 61.2261H201.112V60.2309H202.098C202.507 60.2309 202.808 60.1393 202.998 59.9558C203.196 59.7726 203.295 59.5042 203.295 59.1516V58.9822C203.295 58.6645 203.193 58.4177 202.988 58.2413C202.783 58.0577 202.468 57.9661 202.045 57.9661C201.67 57.9661 201.356 58.0368 201.101 58.1777C200.854 58.3187 200.639 58.5058 200.455 58.7387L199.692 58.0932C199.974 57.7332 200.306 57.458 200.688 57.2674C201.069 57.07 201.547 56.9709 202.119 56.9709C202.903 56.9709 203.5 57.1509 203.91 57.5109C204.327 57.8638 204.535 58.3435 204.535 58.9503C204.535 59.2116 204.496 59.4409 204.419 59.6384C204.348 59.829 204.246 59.9948 204.111 60.1358C203.984 60.27 203.829 60.3793 203.645 60.4639C203.468 60.5487 203.278 60.6087 203.073 60.6439V60.6968C203.299 60.718 203.507 60.7674 203.698 60.8451C203.896 60.9226 204.065 61.0319 204.207 61.1732C204.355 61.3071 204.472 61.4764 204.556 61.6813C204.641 61.8787 204.684 62.1151 204.684 62.3903C204.684 62.7219 204.62 63.0255 204.493 63.3006C204.373 63.5687 204.2 63.8016 203.974 63.999C203.748 64.1897 203.468 64.3413 203.136 64.4542C202.811 64.56 202.447 64.6129 202.045 64.6129Z" fill="white"/>
<path d="M209.618 61.2368H207.159V64.4861H205.972V57.0981H207.159V60.2416H209.618V57.0981H210.805V64.4861H209.618V61.2368Z" fill="white"/>
<path d="M212.084 57.0981H213.25V60.4003L213.102 62.4855H213.175L215.857 57.0981H216.981V64.4861H215.815V61.1839L215.963 59.0987H215.889L213.207 64.4861H212.084V57.0981Z" fill="white"/>
</g>
<defs>
<clipPath id="clip0_1_675">
<rect width="261" height="70" fill="white"/>
</clipPath>
</defs>
</svg>
