<svg width="50" height="50" viewBox="0 0 50 50" fill="none" xmlns="http://www.w3.org/2000/svg">
<rect width="50" height="50" rx="5" fill="white" fill-opacity="0.16"/>
<rect x="0.5" y="0.5" width="49" height="49" rx="4.5" stroke="white" stroke-opacity="0.08"/>
<path fill-rule="evenodd" clip-rule="evenodd" d="M11.3166 24.7359C18.6046 21.5606 23.4644 19.4673 25.8961 18.4559C32.8388 15.5682 34.2815 15.0665 35.2218 15.05C35.4286 15.0463 35.891 15.0976 36.1905 15.3406C36.4434 15.5459 36.513 15.8231 36.5463 16.0177C36.5796 16.2122 36.6211 16.6555 36.5881 17.0018C36.2119 20.9549 34.584 30.548 33.7557 34.9756C33.4053 36.849 32.7153 37.4772 32.0472 37.5387C30.5954 37.6723 29.493 36.5792 28.0869 35.6575C25.8865 34.2151 24.6435 33.3173 22.5077 31.9098C20.0394 30.2832 21.6395 29.3893 23.0462 27.9282C23.4143 27.5459 29.8109 21.7276 29.9348 21.1998C29.9502 21.1338 29.9646 20.8878 29.8184 20.7578C29.6723 20.6279 29.4565 20.6723 29.3008 20.7077C29.0801 20.7578 25.5651 23.0811 18.7557 27.6776C17.7579 28.3627 16.8542 28.6965 16.0445 28.6791C15.1519 28.6598 13.4348 28.1743 12.1584 27.7594C10.5927 27.2505 9.34842 26.9814 9.45677 26.1171C9.51321 25.6669 10.1332 25.2065 11.3166 24.7359Z" fill="white"/>
</svg>
