<svg width="15" height="15" viewBox="0 0 15 15" fill="none" xmlns="http://www.w3.org/2000/svg">
<path d="M9.76129 6.95522C10.7211 6.25523 11.3461 5.12238 11.3461 3.84615C11.3461 1.72538 9.62072 0 7.49995 0C5.37918 0 3.6538 1.72538 3.6538 3.84615C3.6538 5.12238 4.27879 6.25523 5.23861 6.95522C2.85268 7.86826 1.15381 10.1816 1.15381 12.8846C1.15381 14.051 2.10276 15 3.26919 15H11.7307C12.8971 15 13.8461 14.051 13.8461 12.8846C13.8461 10.1816 12.1472 7.86826 9.76129 6.95522ZM4.80766 3.84615C4.80766 2.36162 6.01542 1.15386 7.49995 1.15386C8.98448 1.15386 10.1922 2.36162 10.1922 3.84615C10.1922 5.33068 8.98448 6.53848 7.49995 6.53848C6.01542 6.53848 4.80766 5.33068 4.80766 3.84615ZM11.7307 13.8461H3.26919C2.739 13.8461 2.30767 13.4148 2.30767 12.8846C2.30767 10.0215 4.63689 7.69228 7.49998 7.69228C10.3631 7.69228 12.6923 10.0215 12.6923 12.8846C12.6923 13.4148 12.2609 13.8461 11.7307 13.8461Z" fill="black"/>
</svg>
