<svg width="35" height="35" viewBox="0 0 35 35" fill="none" xmlns="http://www.w3.org/2000/svg">
<path d="M32.5117 17.3395C32.5126 17.7074 32.4182 18.0694 32.2378 18.3901C32.0574 18.7107 31.7971 18.9793 31.4821 19.1696L11.9644 31.1094C11.6354 31.3109 11.2585 31.4209 10.8727 31.4281C10.4869 31.4352 10.1062 31.3392 9.76989 31.1501C9.4368 30.9638 9.15932 30.6922 8.966 30.3632C8.77267 30.0342 8.67048 29.6596 8.66992 29.278V5.40099C8.67048 5.01936 8.77267 4.64477 8.966 4.31574C9.15932 3.98671 9.4368 3.71511 9.76989 3.52887C10.1062 3.33969 10.4869 3.24372 10.8727 3.25086C11.2585 3.258 11.6354 3.36801 11.9644 3.56951L31.4821 15.5093C31.7971 15.6996 32.0574 15.9682 32.2378 16.2889C32.4182 16.6096 32.5126 16.9715 32.5117 17.3395Z" fill="black"/>
</svg>
