<svg width="120" height="120" viewBox="0 0 120 120" fill="none" xmlns="http://www.w3.org/2000/svg">
<rect width="120" height="120" rx="10" fill="white"/>
<path d="M86.5595 60.5505C86.5611 61.1813 86.3993 61.8017 86.0901 62.3515C85.7808 62.9013 85.3345 63.3616 84.7946 63.6878L51.3357 84.1561C50.7716 84.5016 50.1255 84.6901 49.4641 84.7024C48.8028 84.7146 48.1502 84.5501 47.5737 84.2258C47.0026 83.9065 46.527 83.4409 46.1955 82.8769C45.8641 82.3128 45.6889 81.6707 45.688 81.0165V40.0845C45.6889 39.4303 45.8641 38.7882 46.1955 38.2241C46.527 37.66 47.0026 37.1944 47.5737 36.8752C48.1502 36.5509 48.8028 36.3863 49.4641 36.3986C50.1255 36.4108 50.7716 36.5994 51.3357 36.9448L84.7946 57.4131C85.3345 57.7393 85.7808 58.1997 86.0901 58.7495C86.3993 59.2993 86.5611 59.9197 86.5595 60.5505Z" fill="black"/>
</svg>
